<?xml version="1.0" encoding="utf-8"?>
<!-- Generator: Adobe Illustrator 27.0.0, SVG Export Plug-In . SVG Version: 6.00 Build 0)  -->
<svg version="1.1" id="scroll-band" xmlns="http://www.w3.org/2000/svg" xmlns:xlink="http://www.w3.org/1999/xlink" x="0px"
	 y="0px" viewBox="0 0 290 26" style="enable-background:new 0 0 290 26;" xml:space="preserve">
<style type="text/css">
	.st0{fill:#F37820;}
	.st1{enable-background:new    ;}
	.st2{fill:#FFFFFF;}
</style>
<rect id="Rectangle_768" class="st0" width="290" height="26"/>
<g class="st1">
	<path class="st2" d="M30,14.46c0.72,0.54,1.52,0.98,2.58,0.98c0.82,0,1.54-0.29,1.54-1.07c0-0.72-0.59-0.99-1.58-1.28
		c-1.9-0.53-2.69-1.33-2.69-2.93c0-1.81,1.41-2.82,3.17-2.82c1.07,0,1.86,0.27,2.53,0.7v2c-0.75-0.61-1.52-0.98-2.47-0.98
		c-0.82,0-1.26,0.4-1.26,0.99c0,0.67,0.54,0.95,1.65,1.25c1.9,0.54,2.64,1.39,2.64,2.99c0,1.98-1.57,2.87-3.52,2.87
		c-1.04,0-1.97-0.29-2.58-0.69V14.46z"/>
	<path class="st2" d="M43.01,12.05c-0.59-0.48-1.17-0.66-1.82-0.66c-1.18,0-2.03,0.74-2.03,2.02c0,1.22,0.82,2.05,2.11,2.05
		c0.67,0,1.26-0.22,1.81-0.64v1.81c-0.64,0.38-1.34,0.53-2.08,0.53c-2.3,0-3.78-1.47-3.78-3.71c0-2.26,1.58-3.75,3.76-3.75
		c0.82,0,1.42,0.16,2.03,0.53V12.05z"/>
	<path class="st2" d="M46.61,17h-1.92v-6.59c0.79-0.42,1.81-0.66,2.85-0.66c0.56,0,0.96,0.05,1.49,0.19v1.86
		c-0.46-0.19-0.98-0.24-1.44-0.24c-0.35,0-0.67,0.06-0.98,0.16V17z"/>
	<path class="st2" d="M53.46,9.7c2.13,0,3.75,1.5,3.75,3.73s-1.62,3.73-3.75,3.73c-2.13,0-3.73-1.5-3.73-3.73S51.33,9.7,53.46,9.7z
		 M53.46,11.37c-1.04,0-1.79,0.79-1.79,2.07s0.75,2.06,1.79,2.06c1.04,0,1.79-0.78,1.79-2.06S54.5,11.37,53.46,11.37z"/>
	<path class="st2" d="M60.66,17h-1.92V6.12h1.92V17z"/>
	<path class="st2" d="M64.66,17h-1.92V6.12h1.92V17z"/>
	<path class="st2" d="M76.52,14.9l1.33-5.04h1.94L77.72,17h-2.14l-1.28-4.66L73,17h-2.11l-2.06-7.14h2l1.31,5.04l1.36-5.04h1.68
		L76.52,14.9z"/>
	<path class="st2" d="M80.71,7.7c0-0.66,0.51-1.17,1.15-1.17c0.62,0,1.15,0.51,1.15,1.17c0,0.62-0.53,1.14-1.15,1.14
		C81.22,8.84,80.71,8.32,80.71,7.7z M82.82,17H80.9V9.86h1.92V17z"/>
	<path class="st2" d="M83.92,9.86h1.07V8.1h1.92v1.76h2.03v1.6h-2.03v2.87c0,0.82,0.38,1.07,0.96,1.07c0.48,0,0.9-0.14,1.31-0.4
		v1.76c-0.51,0.27-1.12,0.4-1.84,0.4c-1.23,0-2.35-0.59-2.35-2.32v-3.38h-1.07V9.86z"/>
	<path class="st2" d="M90.64,6.12h1.92V10c0.34-0.13,0.99-0.3,1.76-0.3c1.55,0,2.79,0.7,2.79,2.82V17h-1.94v-4.35
		c0-0.8-0.43-1.22-1.26-1.22c-0.46,0-0.96,0.06-1.34,0.21V17h-1.92V6.12z"/>
	<path class="st2" d="M98.88,7.7c0-0.66,0.51-1.17,1.15-1.17c0.62,0,1.15,0.51,1.15,1.17c0,0.62-0.53,1.14-1.15,1.14
		C99.39,8.84,98.88,8.32,98.88,7.7z M100.99,17h-1.92V9.86h1.92V17z"/>
	<path class="st2" d="M103.07,10.33c1.01-0.38,2.34-0.62,3.41-0.62c1.86,0,3.06,0.69,3.06,2.82V17h-1.94v-4.35
		c0-0.8-0.43-1.22-1.26-1.22c-0.46,0-0.94,0.08-1.34,0.21V17h-1.92V10.33z"/>
	<path class="st2" d="M114.35,7.7c0-0.66,0.51-1.17,1.15-1.17c0.62,0,1.15,0.51,1.15,1.17c0,0.62-0.53,1.14-1.15,1.14
		C114.87,8.84,114.35,8.32,114.35,7.7z M116.47,17h-1.92V9.86h1.92V17z"/>
	<path class="st2" d="M126.98,12.53c0-0.75-0.34-1.14-1.09-1.14c-0.51,0-1.02,0.11-1.34,0.27c0.06,0.16,0.14,0.4,0.14,0.74V17h-1.94
		v-4.47c0-0.75-0.35-1.14-1.09-1.14c-0.46,0-0.82,0.06-1.2,0.18V17h-1.92v-6.67c0.99-0.38,2.16-0.62,3.22-0.62
		c0.83,0,1.54,0.21,1.97,0.56c0.64-0.29,1.38-0.56,2.42-0.56c1.7,0,2.77,0.66,2.77,2.75V17h-1.94V12.53z"/>
	<path class="st2" d="M134.42,12.33c0-0.69-0.58-0.98-1.28-0.98c-0.85,0-1.5,0.26-2.06,0.59v-1.67c0.64-0.37,1.49-0.58,2.4-0.58
		c1.63,0,2.85,0.64,2.85,2.54v4.61c-0.69,0.16-1.78,0.29-2.69,0.29c-1.81,0-3.2-0.54-3.2-2.19c0-1.49,1.2-2.19,3.2-2.19h0.78V12.33z
		 M134.42,13.99h-0.64c-0.9,0-1.42,0.26-1.42,0.86c0,0.61,0.5,0.88,1.26,0.88c0.21,0,0.54-0.02,0.8-0.08V13.99z"/>
	<path class="st2" d="M142.71,16.7c-0.24,0.13-0.77,0.24-1.31,0.24c-2.16,0-3.67-1.25-3.67-3.58c0-2.27,1.52-3.65,4.02-3.65
		c1.1,0,2.11,0.22,2.9,0.54v6.64c0,2.45-1.97,3.15-3.58,3.15c-0.88,0-1.71-0.18-2.45-0.53v-1.79c0.86,0.5,1.57,0.7,2.45,0.7
		c0.93,0,1.65-0.5,1.65-1.58V16.7z M142.71,11.53c-0.26-0.08-0.61-0.14-0.96-0.14c-1.28,0-2.07,0.66-2.07,1.97
		c0,1.23,0.77,1.97,1.94,1.97c0.43,0,0.75-0.1,1.09-0.21V11.53z"/>
	<path class="st2" d="M148,13.96v0.03c0.14,1.01,1.14,1.52,2.1,1.52c0.96,0,1.68-0.22,2.39-0.64v1.63
		c-0.66,0.46-1.62,0.66-2.58,0.66c-2.32,0-3.78-1.42-3.78-3.65c0-2.35,1.49-3.81,3.49-3.81c2.22,0,3.09,1.47,3.09,3.36v0.9H148z
		 M150.91,12.81c-0.02-0.88-0.43-1.52-1.34-1.52c-0.83,0-1.38,0.59-1.55,1.52H150.91z"/>
	<path class="st2" d="M156.4,9.86h1.07V8.1h1.92v1.76h2.03v1.6h-2.03v2.87c0,0.82,0.38,1.07,0.96,1.07c0.48,0,0.9-0.14,1.31-0.4
		v1.76c-0.51,0.27-1.12,0.4-1.84,0.4c-1.23,0-2.35-0.59-2.35-2.32v-3.38h-1.07V9.86z"/>
	<path class="st2" d="M166.27,9.7c2.13,0,3.75,1.5,3.75,3.73s-1.62,3.73-3.75,3.73c-2.13,0-3.73-1.5-3.73-3.73
		S164.15,9.7,166.27,9.7z M166.27,11.37c-1.04,0-1.79,0.79-1.79,2.07s0.75,2.06,1.79,2.06c1.04,0,1.79-0.78,1.79-2.06
		S167.31,11.37,166.27,11.37z"/>
	<path class="st2" d="M176.38,17l-2.75-7.14h2.08l1.82,5.23l1.83-5.23h2.02L178.64,17H176.38z"/>
	<path class="st2" d="M182.24,7.7c0-0.66,0.51-1.17,1.15-1.17c0.62,0,1.15,0.51,1.15,1.17c0,0.62-0.53,1.14-1.15,1.14
		C182.75,8.84,182.24,8.32,182.24,7.7z M184.35,17h-1.92V9.86h1.92V17z"/>
	<path class="st2" d="M187.78,13.96v0.03c0.14,1.01,1.14,1.52,2.1,1.52c0.96,0,1.68-0.22,2.39-0.64v1.63
		c-0.66,0.46-1.62,0.66-2.58,0.66c-2.32,0-3.78-1.42-3.78-3.65c0-2.35,1.49-3.81,3.49-3.81c2.22,0,3.09,1.47,3.09,3.36v0.9H187.78z
		 M190.69,12.81c-0.02-0.88-0.43-1.52-1.34-1.52c-0.83,0-1.38,0.59-1.55,1.52H190.69z"/>
	<path class="st2" d="M200.9,14.9l1.33-5.04h1.94L202.1,17h-2.14l-1.28-4.66l-1.3,4.66h-2.11l-2.06-7.14h2l1.31,5.04l1.36-5.04h1.68
		L200.9,14.9z"/>
	<path class="st2" d="M210.51,17h-1.94v-5.54h-1.12v-1.6h1.12v-1.1c0-1.94,1.07-2.8,2.62-2.8c0.58,0,1.02,0.11,1.47,0.35v1.76
		c-0.42-0.24-0.75-0.37-1.22-0.37c-0.62,0-0.94,0.34-0.94,1.02v1.14h1.74v1.6h-1.74V17z"/>
	<path class="st2" d="M219.52,16.79c-0.82,0.22-2.05,0.37-2.94,0.37c-2.07,0-3.36-0.64-3.36-2.75V9.86h1.94v4.39
		c0,0.91,0.4,1.33,1.41,1.33c0.27,0,0.67-0.03,1.02-0.1V9.86h1.94V16.79z"/>
	<path class="st2" d="M223.52,17h-1.92V6.12h1.92V17z"/>
	<path class="st2" d="M227.52,17h-1.92V6.12h1.92V17z"/>
	<path class="st2" d="M239.12,16.82c-0.85,0.22-1.95,0.34-2.91,0.34c-2.46,0-4.1-1.31-4.1-3.71c0-2.27,1.52-3.75,3.75-3.75
		c0.5,0,1.02,0.06,1.34,0.22V6.12h1.92V16.82z M237.2,11.62c-0.3-0.14-0.7-0.22-1.18-0.22c-1.17,0-1.95,0.72-1.95,1.99
		c0,1.36,0.85,2.13,2.21,2.13c0.24,0,0.61-0.02,0.93-0.08V11.62z"/>
	<path class="st2" d="M244.72,12.33c0-0.69-0.58-0.98-1.28-0.98c-0.85,0-1.5,0.26-2.06,0.59v-1.67c0.64-0.37,1.49-0.58,2.4-0.58
		c1.63,0,2.85,0.64,2.85,2.54v4.61c-0.69,0.16-1.78,0.29-2.69,0.29c-1.81,0-3.2-0.54-3.2-2.19c0-1.49,1.2-2.19,3.2-2.19h0.78V12.33z
		 M244.72,13.99h-0.64c-0.9,0-1.42,0.26-1.42,0.86c0,0.61,0.5,0.88,1.26,0.88c0.21,0,0.54-0.02,0.8-0.08V13.99z"/>
	<path class="st2" d="M247.58,9.86h1.07V8.1h1.92v1.76h2.03v1.6h-2.03v2.87c0,0.82,0.38,1.07,0.96,1.07c0.48,0,0.9-0.14,1.31-0.4
		v1.76c-0.51,0.27-1.12,0.4-1.84,0.4c-1.23,0-2.35-0.59-2.35-2.32v-3.38h-1.07V9.86z"/>
	<path class="st2" d="M257.82,12.33c0-0.69-0.58-0.98-1.28-0.98c-0.85,0-1.5,0.26-2.06,0.59v-1.67c0.64-0.37,1.49-0.58,2.4-0.58
		c1.63,0,2.85,0.64,2.85,2.54v4.61c-0.69,0.16-1.78,0.29-2.69,0.29c-1.81,0-3.2-0.54-3.2-2.19c0-1.49,1.2-2.19,3.2-2.19h0.78V12.33z
		 M257.82,13.99h-0.64c-0.9,0-1.42,0.26-1.42,0.86c0,0.61,0.5,0.88,1.26,0.88c0.21,0,0.54-0.02,0.8-0.08V13.99z"/>
</g>
<g id="Group_1856" transform="translate(-47.83 -96)">
	<g id="Group_36" transform="translate(309.831 99)">
		<g id="Group_35" transform="translate(0 0)">
			<g id="Group_20" transform="translate(8.599 9.479)">
				<path id="Path_152" class="st2" d="M15.76,1.29c-0.34-0.02-0.6-0.31-0.58-0.65C15.17,0.31,15.43,0.02,15.77,0
					c0.34,0.02,0.6,0.31,0.58,0.65C16.36,0.98,16.1,1.27,15.76,1.29z"/>
				<path id="Path_153" class="st2" d="M14.04,1.26c-0.32-0.02-0.56-0.29-0.54-0.61c-0.02-0.32,0.23-0.59,0.54-0.61
					c0.32,0.02,0.56,0.29,0.54,0.61c0,0,0,0,0,0C14.6,0.97,14.35,1.24,14.04,1.26z"/>
				<path id="Path_154" class="st2" d="M12.31,1.22c-0.29-0.02-0.52-0.27-0.5-0.56c-0.02-0.3,0.21-0.55,0.51-0.57
					c0.29,0.02,0.52,0.27,0.5,0.56C12.83,0.95,12.61,1.2,12.31,1.22z"/>
				<path id="Path_155" class="st2" d="M10.59,1.18c-0.29,0.03-0.55-0.18-0.58-0.47s0.18-0.55,0.47-0.58
					c0.29-0.03,0.55,0.18,0.58,0.47c0,0.02,0,0.04,0,0.06C11.08,0.93,10.87,1.17,10.59,1.18z"/>
				<path id="Path_156" class="st2" d="M8.87,1.15C8.62,1.13,8.42,0.92,8.44,0.66C8.42,0.41,8.62,0.19,8.87,0.18
					C9.12,0.19,9.31,0.41,9.3,0.66c0,0,0,0,0,0C9.31,0.91,9.12,1.13,8.87,1.15z"/>
				<path id="Path_157" class="st2" d="M7.14,1.11C6.91,1.1,6.74,0.9,6.75,0.67c-0.01-0.23,0.17-0.43,0.4-0.44
					c0.23,0.01,0.41,0.21,0.39,0.44C7.55,0.9,7.38,1.1,7.14,1.11z"/>
				<path id="Path_158" class="st2" d="M5.42,1.07C5.2,1.09,5,0.93,4.98,0.72C4.96,0.5,5.12,0.3,5.34,0.28s0.42,0.14,0.44,0.36
					c0,0.01,0,0.03,0,0.04C5.79,0.88,5.63,1.06,5.42,1.07C5.42,1.07,5.42,1.07,5.42,1.07z"/>
				<path id="Path_159" class="st2" d="M3.7,1.03C3.51,1.02,3.37,0.86,3.38,0.67C3.37,0.49,3.51,0.32,3.7,0.31
					c0.19,0.01,0.33,0.17,0.32,0.36c0,0,0,0,0,0C4.03,0.86,3.89,1.02,3.7,1.03z"/>
				<path id="Path_160" class="st2" d="M1.97,1C1.8,1.02,1.64,0.89,1.62,0.71C1.6,0.54,1.72,0.38,1.9,0.36
					c0.18-0.02,0.34,0.11,0.36,0.28c0,0.01,0,0.02,0,0.04C2.27,0.84,2.14,0.99,1.97,1C1.98,1,1.97,1,1.97,1z"/>
				<path id="Path_161" class="st2" d="M0.25,0.96C0.1,0.95-0.01,0.83,0,0.68C-0.01,0.54,0.1,0.41,0.25,0.4
					C0.4,0.41,0.51,0.54,0.5,0.68C0.51,0.83,0.39,0.95,0.25,0.96z"/>
			</g>
			<g id="Group_21" transform="translate(7.37 10.889)">
				<path id="Path_162" class="st2" d="M15.75,1.24c-0.32-0.02-0.57-0.3-0.55-0.62C15.19,0.3,15.43,0.02,15.76,0
					c0.32,0.02,0.57,0.3,0.55,0.62C16.32,0.94,16.08,1.22,15.75,1.24z"/>
				<path id="Path_163" class="st2" d="M14.03,1.21c-0.3-0.02-0.54-0.28-0.52-0.58c0,0,0,0,0,0c-0.01-0.3,0.22-0.56,0.52-0.58
					c0.32,0.04,0.55,0.32,0.52,0.65C14.52,0.96,14.3,1.18,14.03,1.21L14.03,1.21z"/>
				<path id="Path_164" class="st2" d="M12.31,1.17c-0.28-0.02-0.5-0.26-0.48-0.54c-0.01-0.28,0.2-0.53,0.49-0.54
					c0.28,0.02,0.5,0.26,0.49,0.54c0,0,0,0,0,0C12.81,0.91,12.59,1.16,12.31,1.17z"/>
				<path id="Path_165" class="st2" d="M10.58,1.14c-0.28,0.03-0.53-0.17-0.56-0.45c-0.03-0.28,0.17-0.53,0.45-0.56
					C10.75,0.1,11,0.3,11.03,0.58c0,0.02,0,0.04,0,0.05C11.05,0.9,10.85,1.12,10.58,1.14z"/>
				<path id="Path_166" class="st2" d="M8.86,1.1C8.62,1.09,8.43,0.88,8.44,0.64c0,0,0,0,0,0C8.43,0.4,8.62,0.19,8.86,0.17
					C9.12,0.2,9.3,0.44,9.27,0.69C9.25,0.91,9.08,1.08,8.86,1.1L8.86,1.1z"/>
				<path id="Path_167" class="st2" d="M7.13,1.07c-0.22-0.01-0.39-0.2-0.38-0.42c0,0,0,0,0,0C6.78,0.43,6.97,0.28,7.18,0.3
					c0.21,0.02,0.36,0.21,0.34,0.42C7.49,0.92,7.33,1.07,7.13,1.07z"/>
				<path id="Path_168" class="st2" d="M5.41,1.03c-0.2-0.01-0.36-0.18-0.34-0.38c0,0,0,0,0,0c-0.01-0.2,0.14-0.37,0.35-0.39
					c0.21,0.02,0.37,0.21,0.35,0.43C5.74,0.87,5.6,1.01,5.41,1.03L5.41,1.03z"/>
				<path id="Path_169" class="st2" d="M3.69,1C3.5,0.98,3.37,0.83,3.38,0.65C3.37,0.47,3.51,0.31,3.69,0.3
					c0.19,0.02,0.33,0.2,0.3,0.39C3.97,0.85,3.85,0.98,3.69,1L3.69,1z"/>
				<path id="Path_170" class="st2" d="M1.96,0.96c-0.17,0.02-0.32-0.1-0.34-0.27C1.6,0.52,1.73,0.36,1.9,0.35
					c0.17-0.02,0.32,0.1,0.34,0.27c0,0.01,0,0.02,0,0.03C2.25,0.81,2.13,0.95,1.96,0.96C1.96,0.96,1.96,0.96,1.96,0.96z"/>
				<path id="Path_171" class="st2" d="M0.24,0.93C0.1,0.92-0.01,0.8,0,0.66c0.01-0.13,0.13-0.23,0.27-0.21s0.23,0.13,0.21,0.27
					C0.47,0.84,0.36,0.93,0.24,0.93z"/>
			</g>
			<g id="Group_22" transform="translate(6.142 12.299)">
				<path id="Path_172" class="st2" d="M15.74,1.19c-0.33,0.04-0.63-0.2-0.66-0.53c-0.04-0.33,0.2-0.63,0.53-0.66
					c0.33-0.04,0.63,0.2,0.66,0.53c0,0.02,0,0.04,0,0.06C16.3,0.91,16.06,1.17,15.74,1.19z"/>
				<path id="Path_173" class="st2" d="M14.02,1.16c-0.29-0.02-0.52-0.26-0.5-0.56c0,0,0,0,0,0c-0.01-0.29,0.21-0.54,0.5-0.56
					c0.29,0.02,0.52,0.26,0.5,0.56c0,0,0,0,0,0C14.53,0.89,14.31,1.14,14.02,1.16z"/>
				<path id="Path_174" class="st2" d="M12.3,1.13c-0.29,0.03-0.55-0.18-0.58-0.46c-0.03-0.29,0.18-0.55,0.46-0.58
					c0.29-0.03,0.55,0.18,0.58,0.46c0,0.02,0,0.04,0,0.06C12.78,0.88,12.57,1.11,12.3,1.13C12.3,1.13,12.3,1.13,12.3,1.13z"/>
				<path id="Path_175" class="st2" d="M10.57,1.09c-0.25-0.01-0.45-0.23-0.43-0.48c-0.01-0.25,0.18-0.47,0.43-0.49
					C10.84,0.15,11.03,0.4,11,0.66C10.98,0.89,10.8,1.07,10.57,1.09L10.57,1.09z"/>
				<path id="Path_176" class="st2" d="M8.85,1.06c-0.23-0.01-0.41-0.21-0.4-0.44c0,0,0,0,0,0c0.02-0.22,0.22-0.38,0.44-0.35
					C9.11,0.29,9.27,0.48,9.24,0.7C9.22,0.9,9.05,1.06,8.85,1.06z"/>
				<path id="Path_177" class="st2" d="M7.12,1.02C6.9,1.05,6.7,0.89,6.67,0.66C6.65,0.43,6.81,0.23,7.03,0.21
					c0.23-0.02,0.43,0.14,0.45,0.36c0,0.01,0,0.03,0,0.04C7.5,0.83,7.34,1.01,7.12,1.02z"/>
				<path id="Path_178" class="st2" d="M5.4,0.99C5.2,1.01,5.01,0.87,4.99,0.66c-0.02-0.2,0.12-0.39,0.33-0.41
					c0.2-0.02,0.39,0.12,0.41,0.33c0,0.01,0,0.03,0,0.04C5.74,0.81,5.59,0.98,5.4,0.99z"/>
				<path id="Path_179" class="st2" d="M3.68,0.96C3.5,0.95,3.37,0.8,3.38,0.63c0,0,0,0,0,0C3.37,0.45,3.5,0.3,3.68,0.29
					c0.18,0.02,0.32,0.19,0.3,0.37C3.96,0.82,3.83,0.94,3.68,0.96L3.68,0.96z"/>
				<path id="Path_180" class="st2" d="M1.95,0.92c-0.16,0.02-0.31-0.1-0.33-0.26s0.1-0.31,0.26-0.33c0.16-0.02,0.31,0.1,0.33,0.26
					c0,0.01,0,0.02,0,0.03C2.23,0.78,2.11,0.91,1.95,0.92C1.96,0.92,1.95,0.92,1.95,0.92z"/>
				<path id="Path_181" class="st2" d="M0.23,0.89C0.09,0.9-0.04,0.8-0.06,0.66c-0.02-0.14,0.09-0.27,0.23-0.29S0.44,0.46,0.46,0.6
					c0,0.01,0,0.02,0,0.03C0.47,0.77,0.36,0.88,0.23,0.89z"/>
			</g>
			<g id="Group_23" transform="translate(4.914 13.708)">
				<path id="Path_182" class="st2" d="M15.73,1.15c-0.3-0.02-0.53-0.27-0.51-0.57c0,0,0,0,0,0c-0.01-0.3,0.21-0.55,0.51-0.57
					c0.3,0.02,0.53,0.27,0.51,0.57C16.26,0.87,16.03,1.13,15.73,1.15z"/>
				<path id="Path_183" class="st2" d="M14.01,1.11c-0.28-0.02-0.49-0.25-0.48-0.53c0,0,0,0,0,0c0.03-0.26,0.27-0.46,0.53-0.43
					c0.26,0.03,0.46,0.27,0.43,0.53C14.46,0.93,14.26,1.11,14.01,1.11z"/>
				<path id="Path_184" class="st2" d="M12.29,1.08c-0.27,0.03-0.52-0.17-0.55-0.45c-0.03-0.27,0.17-0.52,0.45-0.55
					s0.52,0.17,0.55,0.45c0,0.02,0,0.03,0,0.05C12.75,0.84,12.55,1.06,12.29,1.08z"/>
				<path id="Path_185" class="st2" d="M10.56,1.05c-0.26,0.03-0.49-0.16-0.51-0.41c-0.03-0.26,0.16-0.49,0.41-0.51
					c0.26-0.03,0.49,0.16,0.51,0.41c0,0.02,0,0.03,0,0.05C10.99,0.83,10.8,1.03,10.56,1.05z"/>
				<path id="Path_186" class="st2" d="M8.84,1.01C8.62,1,8.45,0.82,8.46,0.6c0,0,0-0.01,0-0.01C8.45,0.37,8.62,0.17,8.84,0.16
					C9.08,0.19,9.25,0.4,9.22,0.63C9.2,0.84,9.04,0.99,8.84,1.01L8.84,1.01z"/>
				<path id="Path_187" class="st2" d="M7.12,0.98C6.9,1.01,6.7,0.85,6.68,0.63C6.66,0.42,6.81,0.22,7.03,0.2
					c0.22-0.02,0.41,0.13,0.44,0.35c0,0.01,0,0.03,0,0.04C7.48,0.79,7.32,0.97,7.12,0.98C7.12,0.98,7.12,0.98,7.12,0.98z"/>
				<path id="Path_188" class="st2" d="M5.39,0.95C5.21,0.94,5.06,0.78,5.07,0.6c0,0,0,0,0,0C5.06,0.41,5.21,0.25,5.39,0.24
					c0.2,0.02,0.34,0.2,0.32,0.39C5.69,0.8,5.56,0.93,5.39,0.95L5.39,0.95z"/>
				<path id="Path_189" class="st2" d="M3.67,0.92C3.5,0.94,3.34,0.81,3.32,0.64S3.42,0.3,3.6,0.28c0.18-0.02,0.34,0.11,0.35,0.28
					c0,0.01,0,0.02,0,0.03C3.96,0.77,3.84,0.91,3.67,0.92z"/>
				<path id="Path_190" class="st2" d="M1.94,0.89c-0.16,0.02-0.3-0.1-0.31-0.25c-0.02-0.16,0.1-0.3,0.25-0.31
					c0.16-0.02,0.3,0.1,0.31,0.25c0,0.01,0,0.02,0,0.03C2.2,0.75,2.09,0.88,1.94,0.89C1.94,0.89,1.94,0.89,1.94,0.89z"/>
				<path id="Path_191" class="st2" d="M0.22,0.85C0.09,0.85-0.01,0.74,0,0.61c0,0,0,0,0,0C0.01,0.49,0.12,0.4,0.24,0.41
					s0.21,0.12,0.19,0.24C0.43,0.77,0.33,0.85,0.22,0.85z"/>
			</g>
			<g id="Group_24" transform="translate(3.685 15.118)">
				<path id="Path_192" class="st2" d="M15.73,1.09c-0.29-0.02-0.5-0.26-0.49-0.55c-0.01-0.29,0.2-0.53,0.49-0.55
					c0.29,0.02,0.5,0.26,0.49,0.55C16.23,0.83,16.01,1.08,15.73,1.09z"/>
				<path id="Path_193" class="st2" d="M14,1.07c-0.27-0.02-0.47-0.24-0.46-0.51c-0.01-0.27,0.19-0.5,0.46-0.51
					c0.27,0.02,0.47,0.24,0.46,0.51C14.47,0.82,14.27,1.05,14,1.07z"/>
				<path id="Path_194" class="st2" d="M12.28,1.03c-0.25-0.01-0.44-0.23-0.43-0.48c0,0,0,0,0,0c-0.01-0.25,0.18-0.46,0.43-0.48
					c0.25,0.01,0.44,0.23,0.43,0.48c0,0,0,0,0,0C12.72,0.8,12.53,1.02,12.28,1.03z"/>
				<path id="Path_195" class="st2" d="M10.55,1c-0.23-0.01-0.41-0.21-0.4-0.44c0,0,0,0,0,0c-0.01-0.23,0.17-0.43,0.4-0.44
					c0.24,0.03,0.42,0.25,0.39,0.49C10.92,0.82,10.76,0.98,10.55,1L10.55,1z"/>
				<path id="Path_196" class="st2" d="M8.83,0.97C8.6,1,8.4,0.83,8.38,0.61C8.35,0.38,8.51,0.18,8.74,0.15
					c0.23-0.02,0.43,0.14,0.45,0.36c0,0.01,0,0.03,0,0.04C9.21,0.77,9.05,0.96,8.83,0.97C8.83,0.97,8.83,0.97,8.83,0.97z"/>
				<path id="Path_197" class="st2" d="M7.1,0.94C6.9,0.96,6.71,0.81,6.69,0.61s0.13-0.39,0.33-0.41c0.21-0.02,0.39,0.13,0.41,0.33
					c0,0.01,0,0.03,0,0.04C7.45,0.76,7.3,0.93,7.1,0.94z"/>
				<path id="Path_198" class="st2" d="M5.38,0.91C5.21,0.9,5.07,0.75,5.08,0.57C5.07,0.4,5.21,0.25,5.38,0.23
					C5.57,0.25,5.71,0.42,5.69,0.6C5.67,0.77,5.55,0.9,5.38,0.91L5.38,0.91z"/>
				<path id="Path_199" class="st2" d="M3.66,0.88C3.5,0.87,3.38,0.74,3.39,0.58C3.38,0.42,3.5,0.28,3.66,0.27
					c0.16,0.01,0.28,0.14,0.27,0.3C3.94,0.73,3.82,0.87,3.66,0.88z"/>
				<path id="Path_200" class="st2" d="M1.93,0.85C1.79,0.84,1.69,0.72,1.69,0.58c-0.01-0.14,0.1-0.26,0.24-0.27
					c0.15,0.02,0.26,0.15,0.24,0.3C2.16,0.73,2.06,0.83,1.93,0.85L1.93,0.85z"/>
				<path id="Path_201" class="st2" d="M0.21,0.82C0.09,0.81-0.01,0.7,0,0.58c0.01-0.12,0.12-0.2,0.23-0.19
					c0.12,0.01,0.2,0.12,0.19,0.23C0.41,0.74,0.32,0.82,0.21,0.82z"/>
			</g>
			<g id="Group_25" transform="translate(2.457 16.528)">
				<path id="Path_202" class="st2" d="M15.71,1.05c-0.27-0.02-0.48-0.25-0.47-0.52c-0.01-0.27,0.2-0.51,0.47-0.52
					c0.29,0.03,0.5,0.29,0.47,0.58C16.16,0.83,15.96,1.02,15.71,1.05L15.71,1.05z"/>
				<path id="Path_203" class="st2" d="M13.99,1.01C13.74,1,13.54,0.78,13.55,0.53c0,0,0,0,0,0c-0.01-0.26,0.18-0.47,0.44-0.49
					c0.25,0.01,0.45,0.23,0.44,0.49c0,0,0,0,0,0C14.44,0.78,14.25,1,13.99,1.01z"/>
				<path id="Path_204" class="st2" d="M12.27,0.98c-0.24-0.01-0.42-0.22-0.41-0.45c0,0,0,0,0,0c0.02-0.23,0.23-0.39,0.45-0.36
					c0.23,0.02,0.39,0.23,0.36,0.45C12.65,0.83,12.48,0.99,12.27,0.98z"/>
				<path id="Path_205" class="st2" d="M10.54,0.96c-0.22-0.01-0.39-0.2-0.38-0.42c-0.01-0.22,0.15-0.41,0.37-0.42c0,0,0,0,0,0
					c0.23,0.03,0.4,0.24,0.37,0.47C10.89,0.78,10.74,0.93,10.54,0.96L10.54,0.96z"/>
				<path id="Path_206" class="st2" d="M8.82,0.93C8.6,0.95,8.41,0.8,8.39,0.58C8.36,0.37,8.52,0.17,8.73,0.15S9.14,0.28,9.17,0.5
					c0,0.01,0,0.03,0,0.04C9.18,0.74,9.02,0.92,8.82,0.93z"/>
				<path id="Path_207" class="st2" d="M7.1,0.9C6.91,0.89,6.77,0.73,6.78,0.54c0,0,0,0,0,0C6.77,0.36,6.91,0.2,7.1,0.18
					c0.2,0.02,0.34,0.2,0.32,0.39C7.4,0.75,7.27,0.88,7.1,0.9L7.1,0.9z"/>
				<path id="Path_208" class="st2" d="M5.37,0.87C5.19,0.89,5.03,0.76,5.01,0.58S5.12,0.24,5.3,0.22C5.48,0.2,5.64,0.33,5.66,0.51
					c0,0.01,0,0.02,0,0.04C5.67,0.71,5.54,0.86,5.37,0.87C5.37,0.87,5.37,0.87,5.37,0.87z"/>
				<path id="Path_209" class="st2" d="M3.65,0.84C3.5,0.83,3.38,0.7,3.39,0.55C3.38,0.4,3.5,0.27,3.65,0.26
					C3.8,0.27,3.92,0.4,3.91,0.55C3.92,0.7,3.8,0.83,3.65,0.84z"/>
				<path id="Path_210" class="st2" d="M1.92,0.81C1.79,0.8,1.69,0.69,1.69,0.55c0,0,0,0,0,0c0.01-0.13,0.13-0.22,0.26-0.21
					S2.17,0.48,2.16,0.6C2.14,0.72,2.04,0.81,1.92,0.81z"/>
				<path id="Path_211" class="st2" d="M0.2,0.78C0.08,0.8-0.04,0.71-0.05,0.58c-0.01-0.12,0.07-0.24,0.2-0.25
					c0.12-0.01,0.24,0.07,0.25,0.2c0,0.01,0,0.02,0,0.03C0.41,0.67,0.32,0.77,0.2,0.78z"/>
			</g>
			<g id="Group_26" transform="translate(1.228 17.938)">
				<path id="Path_212" class="st2" d="M15.71,1c-0.26-0.01-0.46-0.24-0.44-0.5c0,0,0,0,0,0c-0.01-0.26,0.18-0.48,0.45-0.5
					c0.26,0.01,0.46,0.23,0.44,0.49c0,0,0,0,0,0.01C16.16,0.76,15.97,0.98,15.71,1z"/>
				<path id="Path_213" class="st2" d="M13.98,0.97c-0.24-0.01-0.43-0.22-0.41-0.46c0,0,0,0,0,0c0.03-0.23,0.23-0.39,0.46-0.37
					c0.23,0.03,0.39,0.23,0.37,0.46C14.37,0.81,14.2,0.97,13.98,0.97z"/>
				<path id="Path_214" class="st2" d="M12.26,0.94c-0.24,0.03-0.46-0.15-0.48-0.39c-0.03-0.24,0.15-0.46,0.39-0.48
					c0.24-0.03,0.46,0.15,0.48,0.39c0,0.02,0,0.03,0,0.05C12.66,0.73,12.49,0.92,12.26,0.94C12.26,0.94,12.26,0.94,12.26,0.94z"/>
				<path id="Path_215" class="st2" d="M10.53,0.91c-0.22,0.02-0.42-0.14-0.44-0.36s0.14-0.42,0.36-0.44
					c0.22-0.02,0.42,0.14,0.44,0.36c0,0.01,0,0.02,0,0.04C10.9,0.72,10.74,0.9,10.53,0.91z"/>
				<path id="Path_216" class="st2" d="M8.81,0.88C8.6,0.91,8.42,0.76,8.4,0.55C8.37,0.35,8.52,0.16,8.73,0.14
					c0.21-0.02,0.39,0.12,0.41,0.33c0,0.01,0,0.03,0,0.04C9.15,0.71,9.01,0.87,8.81,0.88C8.81,0.88,8.81,0.88,8.81,0.88z"/>
				<path id="Path_217" class="st2" d="M7.09,0.86c-0.18-0.01-0.31-0.16-0.3-0.34c-0.01-0.18,0.12-0.33,0.3-0.34
					c0.19,0.02,0.32,0.19,0.3,0.38C7.37,0.71,7.24,0.84,7.09,0.86L7.09,0.86z"/>
				<path id="Path_218" class="st2" d="M5.36,0.83C5.2,0.82,5.08,0.68,5.09,0.52C5.1,0.37,5.24,0.26,5.39,0.28
					c0.15,0.02,0.26,0.15,0.25,0.31C5.62,0.72,5.5,0.83,5.36,0.83z"/>
				<path id="Path_219" class="st2" d="M3.64,0.8C3.49,0.79,3.38,0.67,3.39,0.53c0,0,0,0,0,0C3.41,0.39,3.53,0.29,3.67,0.3
					C3.8,0.32,3.9,0.44,3.89,0.58C3.87,0.71,3.77,0.8,3.64,0.8z"/>
				<path id="Path_220" class="st2" d="M1.92,0.77C1.79,0.77,1.69,0.66,1.7,0.53c0,0,0,0,0,0c0.01-0.12,0.12-0.21,0.24-0.19
					c0.12,0.01,0.21,0.12,0.19,0.24C2.12,0.69,2.03,0.77,1.92,0.77z"/>
				<path id="Path_221" class="st2" d="M0.19,0.74C0.08,0.74,0,0.65,0,0.54c0,0,0,0,0,0c-0.01-0.11,0.07-0.21,0.18-0.21
					c0,0,0.01,0,0.01,0c0.11,0,0.2,0.1,0.19,0.21c0,0,0,0,0,0.01C0.39,0.64,0.31,0.74,0.19,0.74C0.2,0.74,0.19,0.74,0.19,0.74z"/>
			</g>
			<g id="Group_27" transform="translate(0 19.348)">
				<path id="Path_222" class="st2" d="M15.69,0.94c-0.26,0.03-0.5-0.16-0.52-0.42s0.16-0.5,0.42-0.52s0.5,0.16,0.52,0.42
					c0,0.02,0,0.03,0,0.05C16.13,0.72,15.94,0.93,15.69,0.94C15.7,0.94,15.7,0.94,15.69,0.94z"/>
				<path id="Path_223" class="st2" d="M13.97,0.92c-0.24,0.02-0.46-0.15-0.49-0.4s0.15-0.46,0.4-0.49c0.24-0.02,0.46,0.15,0.49,0.4
					c0,0.01,0,0.03,0,0.04C14.38,0.71,14.21,0.9,13.97,0.92C13.98,0.92,13.97,0.92,13.97,0.92z"/>
				<path id="Path_224" class="st2" d="M12.25,0.89c-0.21-0.01-0.38-0.2-0.37-0.41c-0.01-0.22,0.15-0.4,0.37-0.41
					c0.21,0.01,0.38,0.2,0.37,0.41C12.63,0.69,12.46,0.88,12.25,0.89z"/>
				<path id="Path_225" class="st2" d="M10.52,0.87c-0.2-0.01-0.35-0.18-0.34-0.38c-0.01-0.2,0.14-0.37,0.34-0.38
					c0.21,0.03,0.36,0.22,0.33,0.43C10.84,0.71,10.7,0.84,10.52,0.87L10.52,0.87z"/>
				<path id="Path_226" class="st2" d="M8.8,0.84C8.62,0.83,8.48,0.67,8.49,0.49C8.48,0.3,8.62,0.15,8.8,0.13
					C9,0.17,9.13,0.35,9.09,0.54C9.07,0.69,8.95,0.81,8.8,0.84L8.8,0.84z"/>
				<path id="Path_227" class="st2" d="M7.08,0.81C6.9,0.83,6.74,0.7,6.72,0.53C6.7,0.35,6.83,0.19,7.01,0.17
					c0.18-0.02,0.34,0.11,0.36,0.29c0,0.01,0,0.02,0,0.03C7.37,0.66,7.25,0.8,7.08,0.81C7.08,0.81,7.08,0.81,7.08,0.81z"/>
				<path id="Path_228" class="st2" d="M5.35,0.79c-0.16,0.02-0.31-0.1-0.33-0.26C5,0.36,5.12,0.22,5.28,0.2
					c0.16-0.02,0.31,0.1,0.33,0.26c0,0.01,0,0.02,0,0.03C5.62,0.65,5.5,0.78,5.35,0.79C5.35,0.79,5.35,0.79,5.35,0.79z"/>
				<path id="Path_229" class="st2" d="M3.63,0.76C3.49,0.75,3.39,0.64,3.39,0.5c-0.01-0.14,0.1-0.25,0.24-0.26
					C3.77,0.25,3.87,0.36,3.86,0.5C3.87,0.64,3.77,0.75,3.63,0.76z"/>
				<path id="Path_230" class="st2" d="M1.9,0.74C1.77,0.75,1.66,0.66,1.65,0.53C1.63,0.4,1.72,0.28,1.85,0.27
					C1.98,0.26,2.1,0.35,2.11,0.48c0,0.01,0,0.02,0,0.02C2.12,0.62,2.03,0.73,1.9,0.74C1.9,0.74,1.9,0.74,1.9,0.74z"/>
				<path id="Path_231" class="st2" d="M0.18,0.71C0.07,0.72-0.03,0.64-0.04,0.53c-0.01-0.11,0.07-0.21,0.18-0.22
					C0.25,0.3,0.35,0.38,0.36,0.49c0,0.01,0,0.01,0,0.02C0.37,0.61,0.29,0.7,0.18,0.71z"/>
			</g>
			<g id="Group_28" transform="translate(7.377 8.125)">
				<path id="Path_232" class="st2" d="M15.76,0c-0.34-0.04-0.65,0.21-0.69,0.55c-0.04,0.34,0.21,0.65,0.55,0.69
					s0.65-0.21,0.69-0.55c0-0.02,0-0.05,0-0.07C16.33,0.3,16.08,0.02,15.76,0C15.76,0,15.76,0,15.76,0z"/>
				<path id="Path_233" class="st2" d="M14.03,0.04c-0.3,0.02-0.54,0.28-0.52,0.58c0.03,0.29,0.29,0.49,0.58,0.46
					s0.49-0.29,0.46-0.58C14.52,0.24,14.3,0.04,14.03,0.04z"/>
				<path id="Path_234" class="st2" d="M12.31,0.09c-0.28,0.02-0.5,0.26-0.49,0.54c-0.02,0.28,0.2,0.53,0.48,0.54c0,0,0,0,0,0
					c0.28-0.02,0.5-0.26,0.49-0.54C12.81,0.35,12.59,0.1,12.31,0.09C12.31,0.09,12.31,0.09,12.31,0.09z"/>
				<path id="Path_235" class="st2" d="M10.58,0.13c-0.26,0.02-0.46,0.24-0.45,0.5c-0.01,0.26,0.19,0.49,0.45,0.5
					c0.26-0.02,0.46-0.24,0.45-0.5C11.05,0.36,10.85,0.14,10.58,0.13z"/>
				<path id="Path_236" class="st2" d="M8.85,0.17C8.61,0.19,8.43,0.4,8.44,0.64C8.43,0.88,8.61,1.09,8.85,1.1
					C9.1,1.09,9.28,0.88,9.27,0.64C9.28,0.39,9.1,0.19,8.85,0.17C8.86,0.17,8.86,0.17,8.85,0.17z"/>
				<path id="Path_237" class="st2" d="M7.14,0.22C6.9,0.19,6.69,0.36,6.66,0.59S6.8,1.04,7.04,1.07c0.23,0.03,0.45-0.14,0.47-0.38
					c0-0.02,0-0.03,0-0.05C7.53,0.42,7.36,0.23,7.14,0.22C7.14,0.22,7.14,0.22,7.14,0.22z"/>
				<path id="Path_238" class="st2" d="M5.41,0.26c-0.2,0.01-0.36,0.18-0.35,0.39c-0.01,0.2,0.14,0.37,0.34,0.39
					c0.2-0.01,0.36-0.18,0.35-0.39C5.77,0.44,5.61,0.27,5.41,0.26C5.41,0.26,5.41,0.26,5.41,0.26z"/>
				<path id="Path_239" class="st2" d="M3.69,0.3C3.51,0.31,3.37,0.47,3.38,0.65C3.37,0.83,3.5,0.99,3.68,1c0,0,0,0,0,0
					C3.87,0.98,4.01,0.83,4,0.65C4.01,0.47,3.87,0.31,3.69,0.3L3.69,0.3z"/>
				<path id="Path_240" class="st2" d="M1.96,0.35c-0.17-0.02-0.32,0.1-0.34,0.27s0.1,0.32,0.27,0.34c0.17,0.02,0.32-0.1,0.34-0.27
					c0-0.01,0-0.02,0-0.04C2.25,0.49,2.13,0.36,1.96,0.35C1.97,0.35,1.96,0.35,1.96,0.35z"/>
				<path id="Path_241" class="st2" d="M0.24,0.39c-0.15-0.02-0.28,0.09-0.3,0.24s0.09,0.28,0.24,0.3s0.28-0.09,0.3-0.24
					c0-0.01,0-0.02,0-0.03C0.49,0.52,0.38,0.4,0.24,0.39z"/>
			</g>
			<g id="Group_29" transform="translate(6.154 6.771)">
				<path id="Path_242" class="st2" d="M15.75,0c-0.33-0.04-0.63,0.2-0.66,0.53c-0.04,0.33,0.2,0.63,0.53,0.66
					c0.33,0.04,0.63-0.2,0.66-0.53c0-0.02,0-0.04,0-0.06C16.3,0.29,16.06,0.02,15.75,0C15.75,0,15.75,0,15.75,0z"/>
				<path id="Path_243" class="st2" d="M14.02,0.04c-0.31-0.03-0.59,0.19-0.62,0.5s0.19,0.59,0.5,0.62c0.31,0.03,0.59-0.19,0.62-0.5
					c0-0.02,0-0.04,0-0.06C14.53,0.31,14.31,0.06,14.02,0.04C14.02,0.04,14.02,0.04,14.02,0.04z"/>
				<path id="Path_244" class="st2" d="M12.3,0.08c-0.29-0.03-0.55,0.17-0.58,0.46c-0.03,0.29,0.17,0.55,0.46,0.58
					c0.29,0.03,0.55-0.17,0.58-0.46c0-0.02,0-0.04,0-0.06C12.78,0.33,12.57,0.1,12.3,0.08z"/>
				<path id="Path_245" class="st2" d="M10.58,0.12c-0.25,0.02-0.45,0.23-0.43,0.49c0.03,0.24,0.24,0.41,0.48,0.38
					s0.41-0.24,0.38-0.48C10.98,0.29,10.8,0.13,10.58,0.12z"/>
				<path id="Path_246" class="st2" d="M8.85,0.17c-0.25-0.03-0.47,0.15-0.5,0.4s0.15,0.47,0.4,0.5C9,1.09,9.22,0.91,9.25,0.66
					c0-0.02,0-0.03,0-0.05C9.26,0.38,9.08,0.18,8.85,0.17z"/>
				<path id="Path_247" class="st2" d="M7.13,0.21C6.9,0.18,6.7,0.34,6.67,0.57C6.64,0.79,6.81,1,7.03,1.02
					c0.23,0.03,0.43-0.14,0.46-0.36c0-0.02,0-0.03,0-0.05C7.5,0.4,7.34,0.22,7.13,0.21z"/>
				<path id="Path_248" class="st2" d="M5.4,0.25C5.21,0.26,5.06,0.43,5.07,0.62C5.06,0.81,5.21,0.98,5.4,0.99c0,0,0,0,0,0
					c0.19-0.01,0.34-0.18,0.33-0.37C5.74,0.43,5.6,0.26,5.4,0.25z"/>
				<path id="Path_249" class="st2" d="M3.68,0.29C3.5,0.3,3.37,0.45,3.38,0.62C3.37,0.8,3.5,0.95,3.68,0.96c0,0,0,0,0,0
					c0.17-0.01,0.31-0.16,0.3-0.33C3.99,0.45,3.86,0.3,3.68,0.29C3.68,0.29,3.68,0.29,3.68,0.29z"/>
				<path id="Path_250" class="st2" d="M1.96,0.33c-0.16-0.02-0.31,0.1-0.33,0.26C1.6,0.76,1.72,0.91,1.88,0.93
					c0.16,0.02,0.31-0.1,0.33-0.26c0-0.01,0-0.03,0-0.04C2.23,0.47,2.11,0.34,1.96,0.33z"/>
				<path id="Path_251" class="st2" d="M0.23,0.37C0.09,0.36-0.04,0.46-0.06,0.6c-0.02,0.14,0.09,0.27,0.23,0.29
					C0.31,0.91,0.44,0.8,0.46,0.66c0-0.01,0-0.02,0-0.03C0.47,0.5,0.36,0.38,0.23,0.37z"/>
			</g>
			<g id="Group_30" transform="translate(4.931 5.417)">
				<path id="Path_252" class="st2" d="M15.74,0c-0.32-0.04-0.6,0.19-0.64,0.51s0.19,0.6,0.51,0.64c0.32,0.04,0.6-0.19,0.64-0.51
					c0-0.02,0-0.04,0-0.07C16.26,0.27,16.03,0.02,15.74,0z"/>
				<path id="Path_253" class="st2" d="M14.01,0.04c-0.28,0.02-0.49,0.26-0.48,0.54c-0.02,0.28,0.2,0.52,0.48,0.53c0,0,0,0,0,0
					c0.28-0.02,0.49-0.26,0.48-0.54C14.51,0.29,14.29,0.06,14.01,0.04z"/>
				<path id="Path_254" class="st2" d="M12.29,0.08c-0.26,0.02-0.46,0.24-0.45,0.5c-0.02,0.26,0.18,0.48,0.44,0.5c0,0,0,0,0,0
					c0.26-0.02,0.46-0.24,0.45-0.5C12.75,0.32,12.55,0.1,12.29,0.08C12.29,0.08,12.29,0.08,12.29,0.08z"/>
				<path id="Path_255" class="st2" d="M10.56,0.12c-0.26-0.03-0.49,0.16-0.52,0.41c-0.03,0.26,0.16,0.49,0.41,0.52
					c0.26,0.03,0.49-0.16,0.52-0.41c0-0.02,0-0.04,0-0.05C10.99,0.34,10.8,0.14,10.56,0.12z"/>
				<path id="Path_256" class="st2" d="M8.84,0.16c-0.22,0.01-0.39,0.2-0.38,0.43C8.44,0.81,8.61,1,8.83,1.01c0,0,0.01,0,0.01,0
					C9.06,1,9.23,0.81,9.22,0.59C9.24,0.37,9.07,0.18,8.84,0.16C8.85,0.16,8.84,0.16,8.84,0.16z"/>
				<path id="Path_257" class="st2" d="M7.12,0.2c-0.2,0.01-0.36,0.19-0.35,0.39c0.02,0.19,0.2,0.33,0.39,0.31
					c0.19-0.02,0.33-0.2,0.31-0.39C7.45,0.33,7.3,0.2,7.12,0.2z"/>
				<path id="Path_258" class="st2" d="M5.4,0.24C5.21,0.25,5.07,0.41,5.08,0.6C5.1,0.77,5.26,0.9,5.43,0.88s0.3-0.18,0.28-0.35
					C5.69,0.36,5.56,0.24,5.4,0.24z"/>
				<path id="Path_259" class="st2" d="M3.67,0.28C3.49,0.26,3.33,0.39,3.31,0.56C3.29,0.74,3.42,0.9,3.59,0.92
					c0.18,0.02,0.34-0.11,0.36-0.28c0-0.01,0-0.03,0-0.04C3.96,0.43,3.84,0.29,3.67,0.28C3.67,0.28,3.67,0.28,3.67,0.28z"/>
				<path id="Path_260" class="st2" d="M1.94,0.32C1.79,0.3,1.65,0.41,1.63,0.57c-0.02,0.16,0.09,0.3,0.25,0.31
					c0.16,0.02,0.3-0.09,0.31-0.25c0-0.01,0-0.02,0-0.03C2.2,0.45,2.09,0.33,1.94,0.32C1.94,0.32,1.94,0.32,1.94,0.32z"/>
				<path id="Path_261" class="st2" d="M0.22,0.36C0.08,0.34-0.04,0.44-0.05,0.58c-0.02,0.14,0.08,0.26,0.22,0.27
					C0.3,0.87,0.42,0.77,0.44,0.63c0-0.01,0-0.02,0-0.03C0.45,0.48,0.35,0.37,0.22,0.36z"/>
			</g>
			<g id="Group_31" transform="translate(3.709 4.063)">
				<path id="Path_262" class="st2" d="M15.73,0c-0.29,0.02-0.51,0.26-0.49,0.55c-0.02,0.29,0.2,0.53,0.49,0.55
					c0.29-0.02,0.5-0.26,0.49-0.55C16.23,0.26,16.01,0.02,15.73,0z"/>
				<path id="Path_263" class="st2" d="M14,0.04c-0.28-0.03-0.54,0.17-0.57,0.45s0.17,0.54,0.45,0.57c0.28,0.03,0.54-0.17,0.57-0.45
					c0-0.02,0-0.04,0-0.06C14.47,0.28,14.27,0.05,14,0.04C14,0.04,14,0.04,14,0.04z"/>
				<path id="Path_264" class="st2" d="M12.28,0.08c-0.25,0.02-0.44,0.23-0.43,0.48c-0.01,0.25,0.18,0.46,0.43,0.48c0,0,0,0,0,0
					c0.25-0.02,0.44-0.23,0.43-0.48C12.72,0.3,12.53,0.09,12.28,0.08C12.28,0.08,12.28,0.08,12.28,0.08z"/>
				<path id="Path_265" class="st2" d="M10.55,0.11c-0.23,0.01-0.41,0.21-0.4,0.44c0.02,0.22,0.22,0.38,0.44,0.35
					c0.22-0.02,0.38-0.22,0.35-0.44C10.93,0.27,10.76,0.12,10.55,0.11z"/>
				<path id="Path_266" class="st2" d="M8.83,0.15c-0.21,0.01-0.38,0.2-0.37,0.41c-0.01,0.21,0.15,0.4,0.36,0.41c0,0,0,0,0,0
					c0.21-0.01,0.38-0.2,0.37-0.41C9.21,0.35,9.04,0.17,8.83,0.15z"/>
				<path id="Path_267" class="st2" d="M7.11,0.19C6.91,0.2,6.76,0.37,6.77,0.57c-0.01,0.2,0.14,0.36,0.33,0.37l0,0
					c0.21-0.02,0.36-0.21,0.34-0.41C7.42,0.35,7.28,0.21,7.11,0.19L7.11,0.19z"/>
				<path id="Path_268" class="st2" d="M5.38,0.23C5.21,0.24,5.08,0.4,5.08,0.57C5.1,0.74,5.25,0.86,5.42,0.84
					C5.59,0.82,5.71,0.67,5.69,0.5C5.67,0.35,5.54,0.23,5.38,0.23z"/>
				<path id="Path_269" class="st2" d="M3.66,0.27c-0.17-0.02-0.32,0.1-0.34,0.27C3.3,0.71,3.42,0.86,3.59,0.88
					c0.17,0.02,0.32-0.1,0.34-0.27c0-0.01,0-0.03,0-0.04C3.94,0.41,3.82,0.28,3.66,0.27z"/>
				<path id="Path_270" class="st2" d="M1.93,0.31C1.79,0.29,1.65,0.4,1.63,0.55C1.62,0.7,1.72,0.83,1.87,0.85s0.28-0.09,0.3-0.24
					c0-0.01,0-0.02,0-0.03C2.18,0.44,2.08,0.32,1.93,0.31C1.94,0.31,1.94,0.31,1.93,0.31z"/>
				<path id="Path_271" class="st2" d="M0.21,0.35C0.09,0.35-0.01,0.46,0,0.58C-0.01,0.7,0.09,0.81,0.21,0.82
					C0.33,0.81,0.43,0.7,0.42,0.58C0.43,0.46,0.33,0.35,0.21,0.35z"/>
			</g>
			<g id="Group_32" transform="translate(2.486 2.709)">
				<path id="Path_272" class="st2" d="M15.72,0c-0.27,0.02-0.48,0.25-0.47,0.52c-0.02,0.27,0.19,0.51,0.47,0.52
					c0.27-0.02,0.48-0.25,0.47-0.52C16.2,0.25,15.99,0.02,15.72,0C15.72,0,15.72,0,15.72,0z"/>
				<path id="Path_273" class="st2" d="M13.99,0.04c-0.26,0.02-0.45,0.23-0.44,0.49C13.54,0.78,13.73,1,13.99,1.01
					c0.26-0.02,0.45-0.23,0.44-0.49C14.44,0.27,14.25,0.05,13.99,0.04z"/>
				<path id="Path_274" class="st2" d="M12.27,0.07c-0.24,0.01-0.42,0.22-0.41,0.46c-0.01,0.24,0.17,0.44,0.41,0.45
					c0.25-0.03,0.43-0.26,0.4-0.51C12.65,0.27,12.48,0.1,12.27,0.07L12.27,0.07z"/>
				<path id="Path_275" class="st2" d="M10.54,0.11c-0.22,0.01-0.39,0.2-0.38,0.42c0,0,0,0,0,0c-0.01,0.22,0.16,0.41,0.38,0.42
					c0,0,0,0,0,0c0.22-0.01,0.39-0.2,0.38-0.42c0,0,0,0,0,0C10.93,0.31,10.77,0.12,10.54,0.11C10.55,0.11,10.55,0.11,10.54,0.11z"/>
				<path id="Path_276" class="st2" d="M8.82,0.15c-0.2,0.01-0.36,0.19-0.35,0.39c0.02,0.19,0.2,0.33,0.39,0.31
					c0.19-0.02,0.33-0.2,0.31-0.39C9.15,0.28,9,0.15,8.82,0.15z"/>
				<path id="Path_277" class="st2" d="M7.1,0.18C6.91,0.2,6.77,0.36,6.78,0.54C6.77,0.73,6.91,0.89,7.09,0.9c0,0,0,0,0,0
					c0.19-0.01,0.33-0.17,0.32-0.36C7.43,0.35,7.28,0.19,7.1,0.18C7.1,0.18,7.1,0.18,7.1,0.18z"/>
				<path id="Path_278" class="st2" d="M5.37,0.22C5.19,0.2,5.03,0.32,5.01,0.5C4.99,0.68,5.12,0.84,5.3,0.86
					c0.18,0.02,0.34-0.11,0.36-0.29c0-0.01,0-0.03,0-0.04C5.67,0.37,5.54,0.23,5.37,0.22C5.37,0.22,5.37,0.22,5.37,0.22z"/>
				<path id="Path_279" class="st2" d="M3.65,0.26C3.5,0.27,3.38,0.4,3.39,0.55C3.38,0.7,3.5,0.83,3.65,0.84c0,0,0,0,0,0
					C3.81,0.82,3.92,0.68,3.9,0.51C3.89,0.38,3.78,0.27,3.65,0.26L3.65,0.26z"/>
				<path id="Path_280" class="st2" d="M1.92,0.3C1.79,0.3,1.69,0.42,1.69,0.55C1.69,0.69,1.79,0.8,1.92,0.81
					c0.14-0.02,0.24-0.15,0.23-0.29C2.14,0.4,2.04,0.31,1.92,0.3L1.92,0.3z"/>
				<path id="Path_281" class="st2" d="M0.2,0.33c-0.12-0.01-0.24,0.07-0.25,0.2c-0.01,0.12,0.07,0.24,0.2,0.25
					C0.27,0.8,0.39,0.71,0.4,0.58c0-0.01,0-0.02,0-0.03C0.41,0.44,0.32,0.34,0.2,0.33z"/>
			</g>
			<g id="Group_33" transform="translate(1.264 1.354)">
				<path id="Path_282" class="st2" d="M15.71,0c-0.27-0.03-0.52,0.17-0.55,0.44c-0.03,0.27,0.17,0.52,0.44,0.55
					c0.27,0.03,0.52-0.17,0.55-0.44c0-0.02,0-0.04,0-0.05C16.17,0.24,15.97,0.02,15.71,0C15.71,0,15.71,0,15.71,0z"/>
				<path id="Path_283" class="st2" d="M13.98,0.03c-0.24,0.02-0.43,0.22-0.42,0.47c-0.01,0.24,0.17,0.45,0.41,0.46
					c0.24-0.02,0.43-0.22,0.42-0.47C14.41,0.26,14.23,0.05,13.98,0.03z"/>
				<path id="Path_284" class="st2" d="M12.26,0.07c-0.24-0.03-0.46,0.14-0.48,0.38c-0.03,0.24,0.14,0.46,0.38,0.48
					c0.24,0.03,0.46-0.14,0.48-0.38c0-0.02,0-0.03,0-0.05C12.66,0.28,12.49,0.08,12.26,0.07z"/>
				<path id="Path_285" class="st2" d="M10.53,0.11c-0.21,0.01-0.37,0.19-0.36,0.4c-0.01,0.21,0.15,0.39,0.36,0.4
					c0.21-0.01,0.37-0.19,0.36-0.4C10.9,0.3,10.74,0.12,10.53,0.11z"/>
				<path id="Path_286" class="st2" d="M8.81,0.14C8.61,0.12,8.42,0.26,8.4,0.47C8.37,0.67,8.52,0.86,8.73,0.88s0.39-0.12,0.41-0.33
					c0-0.01,0-0.03,0-0.04C9.15,0.32,9,0.15,8.81,0.14z"/>
				<path id="Path_287" class="st2" d="M7.09,0.18C6.9,0.15,6.73,0.29,6.71,0.47C6.68,0.66,6.82,0.83,7,0.86
					c0.19,0.02,0.36-0.11,0.38-0.3c0-0.01,0-0.03,0-0.04C7.4,0.34,7.26,0.19,7.09,0.18z"/>
				<path id="Path_288" class="st2" d="M5.36,0.21C5.2,0.22,5.08,0.36,5.09,0.52C5.08,0.68,5.2,0.82,5.36,0.83
					c0.16-0.01,0.28-0.15,0.28-0.31C5.65,0.36,5.52,0.22,5.36,0.21z"/>
				<path id="Path_289" class="st2" d="M3.64,0.25C3.5,0.26,3.38,0.38,3.39,0.52C3.38,0.67,3.49,0.79,3.64,0.8
					C3.79,0.78,3.9,0.64,3.88,0.49C3.87,0.36,3.77,0.26,3.64,0.25L3.64,0.25z"/>
				<path id="Path_290" class="st2" d="M1.92,0.28C1.79,0.29,1.69,0.4,1.7,0.53c0.01,0.12,0.12,0.21,0.24,0.19
					C2.06,0.71,2.15,0.6,2.14,0.48C2.12,0.37,2.03,0.28,1.92,0.28z"/>
				<path id="Path_291" class="st2" d="M0.19,0.32C0.08,0.32,0,0.41,0,0.53c0,0,0,0,0,0.01c-0.01,0.11,0.08,0.21,0.19,0.21
					c0,0,0,0,0,0c0.11,0,0.2-0.1,0.19-0.21c0,0,0,0,0-0.01C0.39,0.42,0.31,0.33,0.19,0.32C0.19,0.32,0.19,0.32,0.19,0.32z"/>
			</g>
			<g id="Group_34" transform="translate(0.041 0)">
				<path id="Path_292" class="st2" d="M15.7,0c-0.25,0.02-0.44,0.23-0.42,0.47c-0.01,0.25,0.17,0.46,0.42,0.47c0,0,0,0,0,0
					c0.25-0.02,0.43-0.23,0.42-0.47C16.13,0.22,15.94,0.01,15.7,0z"/>
				<path id="Path_293" class="st2" d="M13.97,0.03c-0.23,0.01-0.41,0.21-0.4,0.44c-0.01,0.23,0.16,0.43,0.39,0.44c0,0,0,0,0,0
					c0.23-0.01,0.41-0.21,0.4-0.44c0,0,0,0,0,0C14.38,0.24,14.2,0.05,13.97,0.03C13.97,0.03,13.97,0.03,13.97,0.03z"/>
				<path id="Path_294" class="st2" d="M12.25,0.07c-0.22,0.01-0.38,0.2-0.37,0.41c-0.01,0.22,0.15,0.4,0.37,0.41c0,0,0,0,0,0
					c0.21-0.02,0.38-0.2,0.37-0.41C12.63,0.26,12.47,0.08,12.25,0.07C12.25,0.07,12.25,0.07,12.25,0.07z"/>
				<path id="Path_295" class="st2" d="M10.52,0.1c-0.2,0.01-0.35,0.18-0.34,0.38c-0.01,0.2,0.14,0.37,0.34,0.38c0,0,0,0,0,0
					c0.2-0.01,0.35-0.18,0.34-0.38C10.88,0.28,10.73,0.11,10.52,0.1C10.53,0.1,10.53,0.1,10.52,0.1z"/>
				<path id="Path_296" class="st2" d="M8.8,0.13C8.62,0.14,8.48,0.3,8.49,0.49C8.48,0.67,8.62,0.83,8.8,0.84c0,0,0,0,0,0
					c0.18-0.01,0.33-0.17,0.32-0.35C9.13,0.3,8.99,0.14,8.8,0.13C8.8,0.13,8.8,0.13,8.8,0.13z"/>
				<path id="Path_297" class="st2" d="M7.08,0.17c-0.17,0.01-0.3,0.15-0.29,0.32C6.78,0.66,6.91,0.8,7.08,0.81
					c0.17-0.01,0.3-0.15,0.29-0.32C7.37,0.32,7.25,0.18,7.08,0.17z"/>
				<path id="Path_298" class="st2" d="M5.35,0.2C5.2,0.21,5.08,0.34,5.09,0.5C5.08,0.65,5.2,0.78,5.35,0.79
					c0.15-0.01,0.27-0.14,0.26-0.29C5.62,0.34,5.51,0.21,5.35,0.2z"/>
				<path id="Path_299" class="st2" d="M3.63,0.24C3.49,0.24,3.39,0.36,3.39,0.5c-0.01,0.14,0.1,0.25,0.23,0.26c0,0,0,0,0,0
					C3.77,0.75,3.87,0.64,3.86,0.5C3.87,0.36,3.77,0.24,3.63,0.24C3.63,0.24,3.63,0.24,3.63,0.24z"/>
				<path id="Path_300" class="st2" d="M1.91,0.27C1.78,0.28,1.69,0.38,1.7,0.5C1.69,0.63,1.78,0.73,1.9,0.74c0,0,0,0,0,0
					C2.03,0.73,2.12,0.62,2.11,0.5C2.12,0.38,2.03,0.28,1.91,0.27C1.91,0.27,1.91,0.27,1.91,0.27z"/>
				<path id="Path_301" class="st2" d="M0.18,0.3C0.08,0.31,0,0.4,0,0.5c0,0.1,0.08,0.19,0.18,0.2c0.1-0.01,0.18-0.1,0.18-0.2
					C0.37,0.4,0.29,0.31,0.18,0.3z"/>
			</g>
		</g>
	</g>
</g>
<g id="Group_1857" transform="translate(3 3)">
	<g id="Group_36-2" transform="translate(0 0)">
		<g id="Group_35-2" transform="translate(0 0)">
			<g id="Group_20-2" transform="translate(0 9.479)">
				<path id="Path_152-2" class="st2" d="M0.58,1.29c0.34-0.02,0.6-0.31,0.58-0.65C1.17,0.31,0.92,0.02,0.58,0
					C0.24,0.02-0.02,0.3,0,0.64C-0.02,0.98,0.24,1.27,0.58,1.29z"/>
				<path id="Path_153-2" class="st2" d="M2.3,1.26c0.32-0.02,0.56-0.29,0.54-0.61C2.86,0.34,2.62,0.06,2.3,0.04
					C1.98,0.06,1.74,0.33,1.76,0.65c0,0,0,0,0,0C1.74,0.97,1.99,1.24,2.3,1.26z"/>
				<path id="Path_154-2" class="st2" d="M4.02,1.22c0.29-0.02,0.52-0.27,0.5-0.56c0.02-0.3-0.21-0.55-0.51-0.57
					C3.72,0.11,3.5,0.36,3.52,0.65C3.5,0.95,3.73,1.2,4.02,1.22z"/>
				<path id="Path_155-2" class="st2" d="M5.75,1.18C6.04,1.22,6.3,1.01,6.33,0.72S6.16,0.17,5.87,0.13C5.58,0.1,5.32,0.31,5.28,0.6
					c0,0.02,0,0.04,0,0.06C5.27,0.93,5.48,1.17,5.75,1.18z"/>
				<path id="Path_156-2" class="st2" d="M7.47,1.15c0.25-0.01,0.45-0.23,0.43-0.48c0.01-0.25-0.18-0.47-0.43-0.49
					C7.22,0.19,7.03,0.41,7.04,0.66c0,0,0,0,0,0C7.03,0.91,7.22,1.13,7.47,1.15z"/>
				<path id="Path_157-2" class="st2" d="M9.2,1.11C9.43,1.1,9.61,0.9,9.59,0.67c0.01-0.23-0.17-0.43-0.4-0.44
					C8.96,0.24,8.78,0.43,8.8,0.67C8.79,0.9,8.97,1.1,9.2,1.11z"/>
				<path id="Path_158-2" class="st2" d="M10.92,1.07c0.22,0.02,0.42-0.14,0.44-0.36C11.38,0.5,11.22,0.3,11,0.28
					s-0.42,0.14-0.44,0.36c0,0.01,0,0.03,0,0.04C10.55,0.88,10.71,1.06,10.92,1.07C10.92,1.07,10.92,1.07,10.92,1.07z"/>
				<path id="Path_159-2" class="st2" d="M12.65,1.03c0.19-0.01,0.33-0.17,0.32-0.36c0.01-0.19-0.13-0.35-0.32-0.36
					c-0.19,0.01-0.33,0.17-0.32,0.36c0,0,0,0,0,0C12.32,0.86,12.46,1.02,12.65,1.03z"/>
				<path id="Path_160-2" class="st2" d="M14.37,1c0.18,0.02,0.34-0.11,0.36-0.28c0.02-0.18-0.11-0.34-0.28-0.36
					c-0.18-0.02-0.34,0.11-0.36,0.28c0,0.01,0,0.02,0,0.04C14.07,0.84,14.2,0.99,14.37,1C14.37,1,14.37,1,14.37,1z"/>
				<path id="Path_161-2" class="st2" d="M16.09,0.96c0.15-0.01,0.26-0.13,0.25-0.28c0.01-0.15-0.1-0.27-0.25-0.28
					c-0.15,0.01-0.26,0.13-0.25,0.28C15.84,0.83,15.95,0.95,16.09,0.96z"/>
			</g>
			<g id="Group_21-2" transform="translate(1.26 10.889)">
				<path id="Path_162-2" class="st2" d="M0.56,1.24c0.32-0.02,0.57-0.3,0.55-0.62C1.13,0.3,0.88,0.02,0.55,0
					C0.23,0.02-0.02,0.3,0,0.62C-0.01,0.94,0.23,1.22,0.56,1.24z"/>
				<path id="Path_163-2" class="st2" d="M2.28,1.21c0.3-0.02,0.54-0.28,0.52-0.58c0,0,0,0,0,0c0.01-0.3-0.22-0.56-0.52-0.58
					C1.95,0.08,1.72,0.37,1.76,0.69C1.79,0.96,2,1.18,2.28,1.21L2.28,1.21z"/>
				<path id="Path_164-2" class="st2" d="M4.01,1.17c0.28-0.02,0.5-0.26,0.48-0.54C4.5,0.35,4.29,0.1,4,0.09
					C3.72,0.1,3.5,0.34,3.52,0.63c0,0,0,0,0,0C3.5,0.91,3.72,1.16,4.01,1.17z"/>
				<path id="Path_165-2" class="st2" d="M5.73,1.14c0.28,0.03,0.53-0.17,0.56-0.45c0.03-0.28-0.17-0.53-0.45-0.56
					C5.56,0.1,5.31,0.3,5.28,0.58c0,0.02,0,0.04,0,0.05C5.26,0.9,5.46,1.12,5.73,1.14z"/>
				<path id="Path_166-2" class="st2" d="M7.45,1.1C7.7,1.09,7.88,0.88,7.87,0.64c0,0,0,0,0,0C7.88,0.4,7.69,0.19,7.45,0.17
					C7.19,0.2,7.01,0.44,7.04,0.69C7.06,0.91,7.23,1.08,7.45,1.1L7.45,1.1z"/>
				<path id="Path_167-2" class="st2" d="M9.18,1.07c0.22-0.01,0.39-0.2,0.38-0.42c0,0,0,0,0,0C9.53,0.43,9.34,0.28,9.13,0.3
					C8.92,0.33,8.77,0.52,8.8,0.73C8.82,0.92,8.98,1.07,9.18,1.07z"/>
				<path id="Path_168-2" class="st2" d="M10.9,1.03c0.2-0.01,0.36-0.18,0.34-0.38c0,0,0,0,0,0c0.01-0.2-0.14-0.37-0.35-0.39
					c-0.21,0.02-0.37,0.21-0.35,0.43C10.57,0.87,10.72,1.01,10.9,1.03L10.9,1.03z"/>
				<path id="Path_169-2" class="st2" d="M12.62,1c0.18-0.01,0.32-0.16,0.31-0.35c0.01-0.18-0.13-0.34-0.31-0.35
					c-0.19,0.02-0.33,0.2-0.3,0.39C12.34,0.85,12.46,0.98,12.62,1L12.62,1z"/>
				<path id="Path_170-2" class="st2" d="M14.35,0.96c0.17,0.02,0.32-0.1,0.34-0.27c0.02-0.17-0.1-0.32-0.27-0.34
					c-0.17-0.02-0.32,0.1-0.34,0.27c0,0.01,0,0.02,0,0.03C14.06,0.81,14.18,0.95,14.35,0.96C14.34,0.96,14.35,0.96,14.35,0.96z"/>
				<path id="Path_171-2" class="st2" d="M16.07,0.93c0.14-0.01,0.25-0.13,0.24-0.27c-0.01-0.13-0.13-0.23-0.27-0.21
					s-0.23,0.13-0.21,0.27C15.84,0.84,15.95,0.93,16.07,0.93z"/>
			</g>
			<g id="Group_22-2" transform="translate(2.521 12.299)">
				<path id="Path_172-2" class="st2" d="M0.54,1.19c0.33,0.04,0.63-0.2,0.66-0.53C1.23,0.33,0.99,0.04,0.67,0
					C0.34-0.04,0.04,0.2,0,0.53c0,0.02,0,0.04,0,0.06C-0.02,0.91,0.22,1.17,0.54,1.19z"/>
				<path id="Path_173-2" class="st2" d="M2.26,1.16C2.55,1.14,2.77,0.9,2.76,0.6c0,0,0,0,0,0c0.01-0.29-0.21-0.54-0.5-0.56
					C1.97,0.06,1.74,0.31,1.76,0.6c0,0,0,0,0,0C1.74,0.89,1.97,1.14,2.26,1.16z"/>
				<path id="Path_174-2" class="st2" d="M3.98,1.13c0.29,0.03,0.55-0.18,0.58-0.46C4.59,0.37,4.39,0.11,4.1,0.08
					C3.81,0.05,3.55,0.26,3.52,0.55c0,0.02,0,0.04,0,0.06C3.5,0.88,3.71,1.11,3.98,1.13C3.98,1.13,3.98,1.13,3.98,1.13z"/>
				<path id="Path_175-2" class="st2" d="M5.71,1.09c0.25-0.01,0.45-0.23,0.43-0.48C6.15,0.36,5.96,0.14,5.7,0.12
					C5.44,0.15,5.24,0.4,5.27,0.66C5.3,0.89,5.48,1.07,5.71,1.09L5.71,1.09z"/>
				<path id="Path_176-2" class="st2" d="M7.43,1.06c0.23-0.01,0.41-0.21,0.4-0.44c0,0,0,0,0,0C7.81,0.39,7.61,0.24,7.39,0.26
					C7.17,0.29,7.01,0.48,7.04,0.7C7.06,0.9,7.23,1.06,7.43,1.06z"/>
				<path id="Path_177-2" class="st2" d="M9.16,1.02c0.23,0.02,0.43-0.14,0.45-0.36c0.02-0.23-0.14-0.43-0.36-0.45
					C9.02,0.18,8.82,0.34,8.79,0.57c0,0.01,0,0.03,0,0.04C8.78,0.83,8.94,1.01,9.16,1.02z"/>
				<path id="Path_178-2" class="st2" d="M10.88,0.99c0.2,0.02,0.39-0.12,0.41-0.33c0.02-0.2-0.12-0.39-0.33-0.41
					c-0.2-0.02-0.39,0.12-0.41,0.33c0,0.01,0,0.03,0,0.04C10.53,0.81,10.68,0.98,10.88,0.99z"/>
				<path id="Path_179-2" class="st2" d="M12.6,0.96c0.17-0.01,0.31-0.16,0.3-0.33c0,0,0,0,0,0c0.01-0.17-0.13-0.32-0.3-0.33
					c-0.18,0.02-0.32,0.19-0.3,0.37C12.32,0.82,12.45,0.94,12.6,0.96L12.6,0.96z"/>
				<path id="Path_180-2" class="st2" d="M14.33,0.92c0.16,0.02,0.31-0.1,0.33-0.26s-0.1-0.31-0.26-0.33
					c-0.16-0.02-0.31,0.1-0.33,0.26c0,0.01,0,0.02,0,0.03C14.05,0.78,14.17,0.91,14.33,0.92C14.32,0.92,14.32,0.92,14.33,0.92z"/>
				<path id="Path_181-2" class="st2" d="M16.05,0.89c0.14,0.02,0.27-0.09,0.29-0.23c0.02-0.14-0.09-0.27-0.23-0.29
					s-0.27,0.09-0.29,0.23c0,0.01,0,0.02,0,0.03C15.81,0.77,15.91,0.88,16.05,0.89z"/>
			</g>
			<g id="Group_23-2" transform="translate(3.781 13.709)">
				<path id="Path_182-2" class="st2" d="M0.51,1.15c0.3-0.02,0.53-0.27,0.51-0.57c0,0,0,0,0,0C1.04,0.28,0.81,0.02,0.51,0
					C0.21,0.02-0.02,0.28,0,0.57C-0.01,0.87,0.21,1.13,0.51,1.15z"/>
				<path id="Path_183-2" class="st2" d="M2.24,1.11C2.52,1.1,2.73,0.86,2.72,0.58c0,0,0,0,0,0C2.69,0.31,2.45,0.12,2.18,0.15
					C1.92,0.18,1.73,0.42,1.76,0.68C1.78,0.93,1.99,1.11,2.24,1.11z"/>
				<path id="Path_184-2" class="st2" d="M3.96,1.08c0.27,0.03,0.52-0.17,0.55-0.45c0.03-0.27-0.17-0.52-0.45-0.55
					S3.54,0.26,3.51,0.53c0,0.02,0,0.03,0,0.05C3.5,0.84,3.7,1.06,3.96,1.08z"/>
				<path id="Path_185-2" class="st2" d="M5.68,1.05C5.94,1.08,6.17,0.89,6.2,0.64c0.03-0.26-0.16-0.49-0.41-0.51
					C5.53,0.09,5.3,0.28,5.27,0.53c0,0.02,0,0.03,0,0.05C5.26,0.83,5.44,1.03,5.68,1.05z"/>
				<path id="Path_186-2" class="st2" d="M7.41,1.01C7.63,1,7.8,0.82,7.79,0.6c0,0,0-0.01,0-0.01C7.8,0.37,7.63,0.17,7.41,0.16
					C7.17,0.19,7,0.4,7.02,0.63C7.05,0.84,7.21,0.99,7.41,1.01L7.41,1.01z"/>
				<path id="Path_187-2" class="st2" d="M9.13,0.98c0.22,0.02,0.41-0.13,0.44-0.35C9.59,0.42,9.44,0.22,9.22,0.2
					C9,0.17,8.81,0.33,8.78,0.55c0,0.01,0,0.03,0,0.04C8.77,0.79,8.93,0.97,9.13,0.98C9.13,0.98,9.13,0.98,9.13,0.98z"/>
				<path id="Path_188-2" class="st2" d="M10.86,0.95c0.19-0.01,0.33-0.17,0.32-0.35c0,0,0,0,0,0c0.01-0.19-0.13-0.34-0.32-0.36
					c-0.2,0.02-0.34,0.2-0.32,0.39C10.56,0.8,10.69,0.93,10.86,0.95L10.86,0.95z"/>
				<path id="Path_189-2" class="st2" d="M12.58,0.92c0.18,0.02,0.34-0.11,0.35-0.28s-0.11-0.34-0.28-0.35
					c-0.18-0.02-0.34,0.11-0.35,0.28c0,0.01,0,0.02,0,0.03C12.29,0.77,12.42,0.91,12.58,0.92z"/>
				<path id="Path_190-2" class="st2" d="M14.3,0.89c0.16,0.02,0.3-0.1,0.31-0.25c0.02-0.16-0.1-0.3-0.25-0.31
					c-0.16-0.02-0.3,0.1-0.31,0.25c0,0.01,0,0.02,0,0.03C14.04,0.75,14.15,0.88,14.3,0.89C14.3,0.89,14.3,0.89,14.3,0.89z"/>
				<path id="Path_191-2" class="st2" d="M16.03,0.85c0.13-0.01,0.23-0.12,0.22-0.24c0,0,0,0,0,0C16.23,0.49,16.12,0.4,16,0.41
					s-0.21,0.12-0.19,0.24C15.82,0.77,15.91,0.85,16.03,0.85z"/>
			</g>
			<g id="Group_24-2" transform="translate(5.042 15.118)">
				<path id="Path_192-2" class="st2" d="M0.49,1.09c0.29-0.02,0.5-0.26,0.49-0.55C0.99,0.26,0.77,0.02,0.49,0
					C0.2,0.02-0.02,0.26,0,0.55C-0.01,0.83,0.2,1.08,0.49,1.09z"/>
				<path id="Path_193-2" class="st2" d="M2.21,1.07c0.27-0.02,0.47-0.24,0.46-0.51c0.01-0.27-0.19-0.5-0.46-0.51
					C1.95,0.06,1.74,0.29,1.76,0.55C1.74,0.82,1.95,1.05,2.21,1.07z"/>
				<path id="Path_194-2" class="st2" d="M3.94,1.03c0.25-0.01,0.44-0.23,0.43-0.48c0,0,0,0,0,0c0.01-0.25-0.18-0.46-0.43-0.48
					C3.69,0.09,3.5,0.3,3.51,0.55c0,0,0,0,0,0C3.5,0.8,3.69,1.02,3.94,1.03z"/>
				<path id="Path_195-2" class="st2" d="M5.66,1c0.23-0.01,0.41-0.21,0.4-0.44c0,0,0,0,0,0c0.01-0.23-0.17-0.43-0.4-0.44
					C5.41,0.14,5.24,0.36,5.27,0.61C5.29,0.82,5.45,0.98,5.66,1L5.66,1z"/>
				<path id="Path_196-2" class="st2" d="M7.39,0.97C7.61,1,7.81,0.83,7.84,0.61C7.86,0.38,7.7,0.18,7.47,0.15
					C7.25,0.13,7.05,0.29,7.02,0.52c0,0.01,0,0.03,0,0.04C7.01,0.77,7.17,0.96,7.39,0.97C7.38,0.97,7.38,0.97,7.39,0.97z"/>
				<path id="Path_197-2" class="st2" d="M9.11,0.94C9.32,0.96,9.5,0.81,9.52,0.61S9.4,0.22,9.19,0.19C8.98,0.17,8.8,0.32,8.78,0.53
					c0,0.01,0,0.03,0,0.04C8.76,0.76,8.91,0.93,9.11,0.94z"/>
				<path id="Path_198-2" class="st2" d="M10.83,0.91c0.18-0.01,0.31-0.16,0.3-0.34c0.01-0.18-0.12-0.33-0.3-0.34
					c-0.19,0.02-0.33,0.18-0.31,0.37C10.54,0.77,10.67,0.9,10.83,0.91L10.83,0.91z"/>
				<path id="Path_199-2" class="st2" d="M12.56,0.88c0.16-0.01,0.28-0.14,0.27-0.3c0.01-0.16-0.11-0.29-0.27-0.3
					c-0.16,0.01-0.28,0.14-0.27,0.3C12.28,0.73,12.4,0.87,12.56,0.88z"/>
				<path id="Path_200-2" class="st2" d="M14.28,0.85c0.14-0.01,0.25-0.13,0.24-0.27c0.01-0.14-0.1-0.26-0.24-0.27
					c-0.15,0.02-0.26,0.15-0.24,0.3C14.06,0.73,14.16,0.83,14.28,0.85L14.28,0.85z"/>
				<path id="Path_201-2" class="st2" d="M16,0.82c0.12-0.01,0.22-0.11,0.21-0.24c-0.01-0.12-0.12-0.2-0.23-0.19
					c-0.12,0.01-0.2,0.12-0.19,0.23C15.8,0.74,15.9,0.82,16,0.82z"/>
			</g>
			<g id="Group_25-2" transform="translate(6.303 16.528)">
				<path id="Path_202-2" class="st2" d="M0.47,1.05C0.74,1.03,0.95,0.8,0.93,0.53C0.95,0.25,0.74,0.02,0.47,0
					C0.18,0.03-0.03,0.29,0,0.58C0.03,0.83,0.22,1.02,0.47,1.05L0.47,1.05z"/>
				<path id="Path_203-2" class="st2" d="M2.19,1.01C2.45,1,2.64,0.78,2.63,0.53c0,0,0,0,0,0c0.01-0.26-0.18-0.47-0.44-0.49
					C1.93,0.05,1.74,0.27,1.75,0.52c0,0,0,0,0,0C1.74,0.78,1.94,1,2.19,1.01z"/>
				<path id="Path_204-2" class="st2" d="M3.92,0.98c0.24-0.01,0.42-0.22,0.41-0.45c0,0,0,0,0,0C4.3,0.3,4.1,0.14,3.87,0.17
					C3.65,0.19,3.48,0.39,3.51,0.62C3.53,0.83,3.71,0.99,3.92,0.98z"/>
				<path id="Path_205-2" class="st2" d="M5.64,0.96c0.22-0.01,0.39-0.2,0.38-0.42c0.01-0.22-0.15-0.41-0.37-0.42c0,0,0,0,0,0
					C5.4,0.14,5.24,0.35,5.26,0.59C5.29,0.78,5.44,0.93,5.64,0.96L5.64,0.96z"/>
				<path id="Path_206-2" class="st2" d="M7.36,0.93C7.58,0.95,7.77,0.8,7.79,0.58c0.02-0.22-0.13-0.41-0.35-0.43
					S7.04,0.28,7.02,0.5c0,0.01,0,0.03,0,0.04C7,0.74,7.16,0.92,7.36,0.93z"/>
				<path id="Path_207-2" class="st2" d="M9.09,0.9C9.27,0.89,9.41,0.73,9.4,0.54c0,0,0,0,0,0C9.41,0.36,9.27,0.2,9.08,0.18
					c-0.2,0.02-0.34,0.2-0.32,0.39C8.78,0.75,8.92,0.88,9.09,0.9L9.09,0.9z"/>
				<path id="Path_208-2" class="st2" d="M10.81,0.87c0.18,0.02,0.34-0.11,0.36-0.29s-0.11-0.34-0.29-0.36
					c-0.18-0.02-0.34,0.11-0.36,0.29c0,0.01,0,0.02,0,0.04C10.51,0.71,10.64,0.86,10.81,0.87C10.81,0.87,10.81,0.87,10.81,0.87z"/>
				<path id="Path_209-2" class="st2" d="M12.53,0.84c0.15-0.01,0.27-0.14,0.26-0.29c0.01-0.15-0.11-0.28-0.26-0.29
					c-0.15,0.01-0.27,0.14-0.26,0.29C12.27,0.7,12.38,0.83,12.53,0.84z"/>
				<path id="Path_210-2" class="st2" d="M14.26,0.81c0.13-0.01,0.24-0.12,0.23-0.26c0,0,0,0,0,0c-0.01-0.13-0.13-0.22-0.26-0.21
					s-0.22,0.13-0.21,0.26C14.04,0.72,14.14,0.81,14.26,0.81z"/>
				<path id="Path_211-2" class="st2" d="M15.98,0.78c0.12,0.01,0.24-0.07,0.25-0.2c0.01-0.12-0.07-0.24-0.2-0.25
					c-0.12-0.01-0.24,0.07-0.25,0.2c0,0.01,0,0.02,0,0.03C15.78,0.67,15.87,0.77,15.98,0.78z"/>
			</g>
			<g id="Group_26-2" transform="translate(7.563 17.938)">
				<path id="Path_212-2" class="st2" d="M0.45,1C0.7,0.98,0.9,0.76,0.89,0.5c0,0,0,0,0,0C0.9,0.24,0.7,0.01,0.44,0
					C0.18,0.01-0.01,0.23,0,0.49c0,0,0,0,0,0.01C-0.01,0.76,0.18,0.98,0.45,1z"/>
				<path id="Path_213-2" class="st2" d="M2.17,0.97C2.41,0.95,2.6,0.74,2.58,0.5c0,0,0,0,0,0C2.56,0.27,2.35,0.11,2.12,0.13
					C1.89,0.16,1.73,0.36,1.75,0.59C1.78,0.81,1.96,0.97,2.17,0.97z"/>
				<path id="Path_214-2" class="st2" d="M3.89,0.94c0.24,0.03,0.46-0.15,0.48-0.39C4.4,0.31,4.23,0.1,3.99,0.07
					C3.75,0.04,3.53,0.22,3.51,0.46c0,0.02,0,0.03,0,0.05C3.49,0.73,3.66,0.92,3.89,0.94C3.89,0.94,3.89,0.94,3.89,0.94z"/>
				<path id="Path_215-2" class="st2" d="M5.62,0.91c0.22,0.02,0.42-0.14,0.44-0.36S5.91,0.14,5.69,0.11
					C5.48,0.09,5.28,0.25,5.26,0.47c0,0.01,0,0.02,0,0.04C5.25,0.72,5.41,0.9,5.62,0.91z"/>
				<path id="Path_216-2" class="st2" d="M7.34,0.88c0.21,0.02,0.39-0.12,0.41-0.33c0.02-0.21-0.12-0.39-0.33-0.41
					C7.22,0.12,7.04,0.26,7.02,0.47c0,0.01,0,0.03,0,0.04C7,0.71,7.15,0.87,7.34,0.88C7.34,0.88,7.34,0.88,7.34,0.88z"/>
				<path id="Path_217-2" class="st2" d="M9.06,0.86c0.18-0.01,0.31-0.16,0.3-0.34c0.01-0.18-0.12-0.33-0.3-0.34
					C8.88,0.2,8.74,0.37,8.77,0.56C8.78,0.71,8.91,0.84,9.06,0.86L9.06,0.86z"/>
				<path id="Path_218-2" class="st2" d="M10.79,0.83c0.16-0.01,0.28-0.15,0.28-0.31c-0.02-0.15-0.15-0.26-0.31-0.25
					c-0.15,0.02-0.26,0.15-0.25,0.31C10.53,0.72,10.65,0.83,10.79,0.83z"/>
				<path id="Path_219-2" class="st2" d="M12.52,0.8c0.14-0.01,0.25-0.13,0.25-0.28c0,0,0,0,0,0c-0.01-0.14-0.14-0.24-0.27-0.22
					c-0.14,0.01-0.24,0.14-0.22,0.27C12.28,0.71,12.39,0.8,12.52,0.8z"/>
				<path id="Path_220-2" class="st2" d="M14.24,0.77c0.13-0.01,0.23-0.12,0.22-0.24c0,0,0,0,0,0c-0.01-0.12-0.12-0.21-0.24-0.19
					C14.09,0.35,14,0.46,14.02,0.58C14.03,0.69,14.12,0.77,14.24,0.77z"/>
				<path id="Path_221-2" class="st2" d="M15.96,0.74c0.11,0,0.2-0.1,0.19-0.21c0,0,0,0,0,0c0.01-0.11-0.07-0.21-0.18-0.21
					c0,0-0.01,0-0.01,0c-0.11,0-0.2,0.1-0.19,0.21c0,0,0,0,0,0.01C15.76,0.64,15.84,0.74,15.96,0.74
					C15.95,0.74,15.96,0.74,15.96,0.74z"/>
			</g>
			<g id="Group_27-2" transform="translate(8.824 19.348)">
				<path id="Path_222-2" class="st2" d="M0.42,0.94c0.26,0.03,0.5-0.16,0.52-0.42S0.79,0.03,0.53,0S0.03,0.16,0,0.42
					c0,0.02,0,0.03,0,0.05C-0.01,0.72,0.17,0.93,0.42,0.94C0.42,0.94,0.42,0.94,0.42,0.94z"/>
				<path id="Path_223-2" class="st2" d="M2.15,0.92c0.24,0.02,0.46-0.15,0.49-0.4s-0.15-0.46-0.4-0.49
					c-0.24-0.02-0.46,0.15-0.49,0.4c0,0.01,0,0.03,0,0.04C1.73,0.71,1.91,0.9,2.15,0.92C2.14,0.92,2.14,0.92,2.15,0.92z"/>
				<path id="Path_224-2" class="st2" d="M3.87,0.89c0.21-0.01,0.38-0.2,0.37-0.41c0.01-0.22-0.15-0.4-0.37-0.41
					C3.65,0.08,3.49,0.26,3.5,0.48C3.49,0.69,3.65,0.88,3.87,0.89z"/>
				<path id="Path_225-2" class="st2" d="M5.59,0.87c0.2-0.01,0.35-0.18,0.34-0.38c0.01-0.2-0.14-0.37-0.34-0.38
					C5.38,0.13,5.23,0.32,5.26,0.53C5.28,0.71,5.42,0.84,5.59,0.87L5.59,0.87z"/>
				<path id="Path_226-2" class="st2" d="M7.32,0.84C7.5,0.83,7.64,0.67,7.63,0.49C7.64,0.3,7.5,0.15,7.32,0.13
					C7.12,0.17,6.99,0.35,7.03,0.54C7.05,0.69,7.17,0.81,7.32,0.84L7.32,0.84z"/>
				<path id="Path_227-2" class="st2" d="M9.04,0.81C9.22,0.83,9.38,0.7,9.4,0.53c0.02-0.18-0.11-0.34-0.29-0.36
					C8.93,0.15,8.77,0.28,8.75,0.46c0,0.01,0,0.02,0,0.03C8.74,0.66,8.87,0.8,9.04,0.81C9.04,0.81,9.04,0.81,9.04,0.81z"/>
				<path id="Path_228-2" class="st2" d="M10.77,0.79c0.16,0.02,0.31-0.1,0.33-0.26c0.02-0.16-0.1-0.31-0.26-0.33
					c-0.16-0.02-0.31,0.1-0.33,0.26c0,0.01,0,0.02,0,0.03C10.49,0.65,10.61,0.78,10.77,0.79C10.76,0.79,10.77,0.79,10.77,0.79z"/>
				<path id="Path_229-2" class="st2" d="M12.49,0.76c0.14-0.01,0.24-0.12,0.23-0.26c0.01-0.14-0.1-0.25-0.24-0.26
					c-0.14,0.01-0.24,0.13-0.23,0.26C12.25,0.64,12.35,0.75,12.49,0.76z"/>
				<path id="Path_230-2" class="st2" d="M14.21,0.74c0.13,0.01,0.24-0.08,0.26-0.21c0.01-0.13-0.08-0.24-0.21-0.26
					C14.13,0.26,14.02,0.35,14,0.48c0,0.01,0,0.02,0,0.02C13.99,0.62,14.09,0.73,14.21,0.74C14.21,0.74,14.21,0.74,14.21,0.74z"/>
				<path id="Path_231-2" class="st2" d="M15.94,0.71c0.11,0.01,0.21-0.07,0.22-0.18c0.01-0.11-0.07-0.21-0.18-0.22
					c-0.11-0.01-0.21,0.07-0.22,0.18c0,0.01,0,0.01,0,0.02C15.75,0.61,15.83,0.7,15.94,0.71z"/>
			</g>
			<g id="Group_28-2" transform="translate(1.255 8.125)">
				<path id="Path_232-2" class="st2" d="M0.55,0C0.9-0.04,1.21,0.21,1.25,0.55C1.29,0.89,1.04,1.2,0.7,1.24S0.04,1.04,0,0.69
					c0-0.02,0-0.05,0-0.07C-0.02,0.3,0.23,0.02,0.55,0C0.55,0,0.55,0,0.55,0z"/>
				<path id="Path_233-2" class="st2" d="M2.28,0.04c0.3,0.02,0.54,0.28,0.52,0.58C2.77,0.91,2.51,1.12,2.22,1.09
					S1.73,0.79,1.76,0.51C1.79,0.24,2.01,0.04,2.28,0.04z"/>
				<path id="Path_234-2" class="st2" d="M4,0.09C4.29,0.1,4.5,0.35,4.49,0.63C4.5,0.92,4.29,1.16,4,1.17c0,0,0,0,0,0
					C3.72,1.16,3.5,0.91,3.52,0.63C3.5,0.35,3.72,0.1,4,0.09C4,0.09,4,0.09,4,0.09z"/>
				<path id="Path_235-2" class="st2" d="M5.73,0.13c0.26,0.02,0.46,0.24,0.45,0.5c0.01,0.26-0.19,0.49-0.45,0.5
					c-0.26-0.02-0.46-0.24-0.45-0.5C5.26,0.36,5.46,0.14,5.73,0.13z"/>
				<path id="Path_236-2" class="st2" d="M7.45,0.17C7.69,0.19,7.88,0.4,7.86,0.64C7.88,0.88,7.69,1.09,7.45,1.1
					C7.21,1.09,7.02,0.88,7.03,0.64C7.02,0.39,7.21,0.19,7.45,0.17C7.45,0.17,7.45,0.17,7.45,0.17z"/>
				<path id="Path_237-2" class="st2" d="M9.17,0.22c0.23-0.03,0.45,0.14,0.47,0.38S9.51,1.04,9.27,1.07
					C9.04,1.09,8.82,0.92,8.8,0.69c0-0.02,0-0.03,0-0.05C8.78,0.42,8.95,0.23,9.17,0.22C9.17,0.22,9.17,0.22,9.17,0.22z"/>
				<path id="Path_238-2" class="st2" d="M10.9,0.26c0.2,0.01,0.36,0.18,0.35,0.39c0.01,0.2-0.14,0.37-0.34,0.39
					c-0.2-0.01-0.36-0.18-0.35-0.39C10.54,0.44,10.7,0.27,10.9,0.26C10.9,0.26,10.9,0.26,10.9,0.26z"/>
				<path id="Path_239-2" class="st2" d="M12.62,0.3c0.18,0.01,0.32,0.17,0.31,0.35c0.01,0.18-0.13,0.34-0.31,0.35c0,0,0,0,0,0
					c-0.18-0.01-0.32-0.17-0.31-0.35C12.3,0.47,12.44,0.31,12.62,0.3L12.62,0.3z"/>
				<path id="Path_240-2" class="st2" d="M14.35,0.35c0.17-0.02,0.32,0.1,0.34,0.27s-0.1,0.32-0.27,0.34
					c-0.17,0.02-0.32-0.1-0.34-0.27c0-0.01,0-0.02,0-0.04C14.06,0.49,14.19,0.36,14.35,0.35C14.35,0.35,14.35,0.35,14.35,0.35z"/>
				<path id="Path_241-2" class="st2" d="M16.07,0.39c0.15-0.02,0.28,0.09,0.3,0.24s-0.09,0.28-0.24,0.3s-0.28-0.09-0.3-0.24
					c0-0.01,0-0.02,0-0.03C15.82,0.52,15.93,0.4,16.07,0.39z"/>
			</g>
			<g id="Group_29-2" transform="translate(2.509 6.771)">
				<path id="Path_242-2" class="st2" d="M0.53,0C0.86-0.04,1.16,0.2,1.2,0.53C1.23,0.86,1,1.15,0.67,1.19
					C0.34,1.23,0.04,0.99,0,0.66C0,0.64,0,0.62,0,0.6C-0.02,0.29,0.22,0.02,0.53,0C0.53,0,0.53,0,0.53,0z"/>
				<path id="Path_243-2" class="st2" d="M2.26,0.04c0.31-0.03,0.59,0.19,0.62,0.5s-0.19,0.59-0.5,0.62
					C2.07,1.2,1.79,0.97,1.76,0.66c0-0.02,0-0.04,0-0.06C1.74,0.31,1.96,0.06,2.26,0.04C2.25,0.04,2.25,0.04,2.26,0.04z"/>
				<path id="Path_244-2" class="st2" d="M3.98,0.08c0.29-0.03,0.55,0.17,0.58,0.46C4.59,0.83,4.39,1.09,4.1,1.13
					C3.81,1.16,3.55,0.95,3.52,0.66c0-0.02,0-0.04,0-0.06C3.5,0.33,3.71,0.1,3.98,0.08z"/>
				<path id="Path_245-2" class="st2" d="M5.7,0.12c0.25,0.02,0.45,0.23,0.43,0.49C6.11,0.85,5.89,1.02,5.66,0.99
					S5.25,0.75,5.27,0.51C5.3,0.29,5.48,0.13,5.7,0.12z"/>
				<path id="Path_246-2" class="st2" d="M7.43,0.17c0.25-0.03,0.47,0.15,0.5,0.4s-0.15,0.47-0.4,0.5c-0.25,0.03-0.47-0.15-0.5-0.4
					c0-0.02,0-0.03,0-0.05C7.02,0.38,7.2,0.18,7.43,0.17z"/>
				<path id="Path_247-2" class="st2" d="M9.15,0.21c0.23-0.03,0.43,0.14,0.46,0.36C9.63,0.79,9.47,1,9.25,1.02
					C9.02,1.05,8.82,0.89,8.79,0.66c0-0.02,0-0.03,0-0.05C8.78,0.4,8.94,0.22,9.15,0.21z"/>
				<path id="Path_248-2" class="st2" d="M10.88,0.25c0.19,0.01,0.34,0.18,0.33,0.37c0.01,0.19-0.14,0.36-0.33,0.37c0,0,0,0,0,0
					c-0.19-0.01-0.34-0.18-0.33-0.37C10.53,0.43,10.68,0.26,10.88,0.25z"/>
				<path id="Path_249-2" class="st2" d="M12.6,0.29c0.17,0.01,0.31,0.16,0.3,0.33c0.01,0.17-0.12,0.32-0.3,0.33c0,0,0,0,0,0
					c-0.17-0.01-0.31-0.16-0.3-0.33C12.29,0.45,12.42,0.3,12.6,0.29C12.6,0.29,12.6,0.29,12.6,0.29z"/>
				<path id="Path_250-2" class="st2" d="M14.33,0.33c0.16-0.02,0.31,0.1,0.33,0.26c0.02,0.16-0.1,0.31-0.26,0.33
					c-0.16,0.02-0.31-0.1-0.33-0.26c0-0.01,0-0.03,0-0.04C14.06,0.47,14.17,0.34,14.33,0.33z"/>
				<path id="Path_251-2" class="st2" d="M16.05,0.37c0.14-0.02,0.27,0.09,0.29,0.23c0.02,0.14-0.09,0.27-0.23,0.29
					c-0.14,0.02-0.27-0.09-0.29-0.23c0-0.01,0-0.02,0-0.03C15.81,0.5,15.91,0.38,16.05,0.37z"/>
			</g>
			<g id="Group_30-2" transform="translate(3.763 5.417)">
				<path id="Path_252-2" class="st2" d="M0.51,0c0.32-0.04,0.6,0.19,0.64,0.51s-0.19,0.6-0.51,0.64C0.32,1.18,0.04,0.95,0,0.64
					c0-0.02,0-0.04,0-0.07C-0.01,0.27,0.21,0.02,0.51,0z"/>
				<path id="Path_253-2" class="st2" d="M2.23,0.04C2.51,0.06,2.73,0.3,2.71,0.58c0.02,0.28-0.2,0.52-0.48,0.53c0,0,0,0,0,0
					C1.96,1.09,1.74,0.85,1.76,0.57C1.74,0.29,1.96,0.06,2.23,0.04z"/>
				<path id="Path_254-2" class="st2" d="M3.96,0.08c0.26,0.02,0.46,0.24,0.45,0.5c0.02,0.26-0.18,0.48-0.44,0.5c0,0,0,0,0,0
					C3.7,1.06,3.5,0.84,3.51,0.58C3.5,0.32,3.7,0.1,3.96,0.08C3.96,0.08,3.96,0.08,3.96,0.08z"/>
				<path id="Path_255-2" class="st2" d="M5.68,0.12C5.94,0.09,6.17,0.28,6.2,0.53c0.03,0.26-0.16,0.49-0.41,0.52
					C5.53,1.07,5.3,0.89,5.27,0.64c0-0.02,0-0.04,0-0.05C5.26,0.34,5.44,0.14,5.68,0.12z"/>
				<path id="Path_256-2" class="st2" d="M7.41,0.16c0.22,0.01,0.39,0.2,0.38,0.43C7.8,0.81,7.64,1,7.42,1.01c0,0-0.01,0-0.01,0
					C7.18,1,7.01,0.81,7.03,0.59C7.01,0.37,7.18,0.18,7.41,0.16C7.4,0.16,7.4,0.16,7.41,0.16z"/>
				<path id="Path_257-2" class="st2" d="M9.13,0.2c0.2,0.01,0.36,0.19,0.35,0.39C9.46,0.79,9.28,0.92,9.09,0.9
					C8.9,0.88,8.76,0.71,8.78,0.51C8.8,0.33,8.95,0.2,9.13,0.2z"/>
				<path id="Path_258-2" class="st2" d="M10.85,0.24c0.19,0.01,0.33,0.17,0.32,0.36c-0.02,0.17-0.18,0.3-0.35,0.28
					s-0.3-0.18-0.28-0.35C10.56,0.36,10.69,0.24,10.85,0.24z"/>
				<path id="Path_259-2" class="st2" d="M12.58,0.28c0.18-0.02,0.34,0.11,0.36,0.28c0.02,0.18-0.11,0.34-0.28,0.36
					c-0.18,0.02-0.34-0.11-0.36-0.28c0-0.01,0-0.03,0-0.04C12.28,0.43,12.41,0.29,12.58,0.28C12.58,0.28,12.58,0.28,12.58,0.28z"/>
				<path id="Path_260-2" class="st2" d="M14.3,0.32c0.16-0.02,0.3,0.09,0.31,0.25c0.02,0.16-0.09,0.3-0.25,0.31
					c-0.16,0.02-0.3-0.09-0.31-0.25c0-0.01,0-0.02,0-0.03C14.04,0.45,14.15,0.33,14.3,0.32C14.3,0.32,14.3,0.32,14.3,0.32z"/>
				<path id="Path_261-2" class="st2" d="M16.03,0.36c0.14-0.02,0.26,0.08,0.27,0.22c0.02,0.14-0.08,0.26-0.22,0.27
					c-0.14,0.02-0.26-0.08-0.27-0.22c0-0.01,0-0.02,0-0.03C15.8,0.48,15.9,0.37,16.03,0.36z"/>
			</g>
			<g id="Group_31-2" transform="translate(5.018 4.063)">
				<path id="Path_262-2" class="st2" d="M0.49,0c0.29,0.02,0.51,0.26,0.49,0.55c0.02,0.29-0.2,0.53-0.49,0.55
					C0.2,1.08-0.01,0.83,0,0.55C-0.02,0.26,0.2,0.02,0.49,0z"/>
				<path id="Path_263-2" class="st2" d="M2.21,0.04c0.28-0.03,0.54,0.17,0.57,0.45S2.62,1.03,2.33,1.06
					C2.05,1.1,1.79,0.89,1.76,0.61c0-0.02,0-0.04,0-0.06C1.74,0.28,1.94,0.05,2.21,0.04C2.21,0.04,2.21,0.04,2.21,0.04z"/>
				<path id="Path_264-2" class="st2" d="M3.94,0.08c0.25,0.02,0.44,0.23,0.43,0.48c0.01,0.25-0.18,0.46-0.43,0.48c0,0,0,0,0,0
					C3.69,1.02,3.5,0.8,3.51,0.55C3.5,0.3,3.69,0.09,3.94,0.08C3.94,0.08,3.94,0.08,3.94,0.08z"/>
				<path id="Path_265-2" class="st2" d="M5.66,0.11c0.23,0.01,0.41,0.21,0.4,0.44C6.04,0.78,5.84,0.94,5.62,0.91
					C5.4,0.89,5.24,0.69,5.27,0.47C5.29,0.27,5.46,0.12,5.66,0.11z"/>
				<path id="Path_266-2" class="st2" d="M7.38,0.15c0.21,0.01,0.38,0.2,0.37,0.41c0.01,0.21-0.15,0.4-0.36,0.41c0,0,0,0,0,0
					c-0.21-0.01-0.38-0.2-0.37-0.41C7.01,0.35,7.17,0.17,7.38,0.15z"/>
				<path id="Path_267-2" class="st2" d="M9.11,0.19C9.3,0.2,9.45,0.37,9.44,0.57c0.01,0.2-0.14,0.36-0.33,0.37l0,0
					C8.9,0.92,8.75,0.73,8.77,0.53C8.79,0.35,8.93,0.21,9.11,0.19L9.11,0.19z"/>
				<path id="Path_268-2" class="st2" d="M10.83,0.23c0.18,0.01,0.31,0.16,0.3,0.34c-0.02,0.17-0.17,0.29-0.34,0.27
					c-0.17-0.02-0.29-0.17-0.27-0.34C10.54,0.35,10.67,0.23,10.83,0.23z"/>
				<path id="Path_269-2" class="st2" d="M12.56,0.27c0.17-0.02,0.32,0.1,0.34,0.27c0.02,0.17-0.1,0.32-0.27,0.34
					c-0.17,0.02-0.32-0.1-0.34-0.27c0-0.01,0-0.03,0-0.04C12.28,0.41,12.4,0.28,12.56,0.27z"/>
				<path id="Path_270-2" class="st2" d="M14.28,0.31c0.15-0.02,0.28,0.09,0.3,0.24c0.02,0.15-0.09,0.28-0.24,0.3
					s-0.28-0.09-0.3-0.24c0-0.01,0-0.02,0-0.03C14.03,0.44,14.14,0.32,14.28,0.31C14.28,0.31,14.28,0.31,14.28,0.31z"/>
				<path id="Path_271-2" class="st2" d="M16,0.35c0.12,0.01,0.22,0.11,0.21,0.24C16.22,0.7,16.13,0.81,16,0.82
					c-0.12-0.01-0.22-0.11-0.21-0.24C15.79,0.46,15.88,0.35,16,0.35z"/>
			</g>
			<g id="Group_32-2" transform="translate(6.273 2.709)">
				<path id="Path_272-2" class="st2" d="M0.47,0c0.27,0.02,0.48,0.25,0.47,0.52C0.95,0.8,0.74,1.03,0.47,1.04
					C0.2,1.03-0.01,0.79,0,0.52C-0.02,0.25,0.19,0.02,0.47,0C0.47,0,0.47,0,0.47,0z"/>
				<path id="Path_273-2" class="st2" d="M2.19,0.04c0.26,0.02,0.45,0.23,0.44,0.49C2.64,0.78,2.45,1,2.19,1.01
					C1.94,1,1.74,0.78,1.76,0.52C1.74,0.27,1.94,0.05,2.19,0.04z"/>
				<path id="Path_274-2" class="st2" d="M3.91,0.07c0.24,0.01,0.42,0.22,0.41,0.46c0.01,0.24-0.17,0.44-0.41,0.45
					c-0.25-0.03-0.43-0.26-0.4-0.51C3.54,0.27,3.7,0.1,3.91,0.07L3.91,0.07z"/>
				<path id="Path_275-2" class="st2" d="M5.64,0.11c0.22,0.01,0.39,0.2,0.38,0.42c0,0,0,0,0,0c0.01,0.22-0.16,0.41-0.38,0.42
					c0,0,0,0,0,0c-0.22-0.01-0.39-0.2-0.38-0.42c0,0,0,0,0,0C5.25,0.31,5.42,0.12,5.64,0.11C5.64,0.11,5.64,0.11,5.64,0.11z"/>
				<path id="Path_276-2" class="st2" d="M7.36,0.15c0.2,0.01,0.36,0.19,0.35,0.39c-0.02,0.19-0.2,0.33-0.39,0.31
					c-0.19-0.02-0.33-0.2-0.31-0.39C7.03,0.28,7.18,0.15,7.36,0.15z"/>
				<path id="Path_277-2" class="st2" d="M9.09,0.18C9.27,0.2,9.41,0.36,9.41,0.54C9.42,0.73,9.27,0.89,9.09,0.9c0,0,0,0,0,0
					C8.9,0.89,8.76,0.73,8.77,0.54C8.76,0.35,8.9,0.19,9.09,0.18C9.08,0.18,9.08,0.18,9.09,0.18z"/>
				<path id="Path_278-2" class="st2" d="M10.81,0.22c0.18-0.02,0.34,0.11,0.36,0.29c0.02,0.18-0.11,0.34-0.29,0.36
					c-0.18,0.02-0.34-0.11-0.36-0.29c0-0.01,0-0.03,0-0.04C10.51,0.37,10.64,0.23,10.81,0.22C10.81,0.22,10.81,0.22,10.81,0.22z"/>
				<path id="Path_279-2" class="st2" d="M12.53,0.26c0.15,0.01,0.27,0.14,0.26,0.29c0.01,0.15-0.11,0.28-0.26,0.29c0,0,0,0,0,0
					c-0.16-0.02-0.28-0.16-0.26-0.33C12.29,0.38,12.4,0.27,12.53,0.26L12.53,0.26z"/>
				<path id="Path_280-2" class="st2" d="M14.26,0.3c0.13,0.01,0.24,0.12,0.23,0.26c0.01,0.13-0.1,0.25-0.23,0.26
					c-0.14-0.02-0.24-0.15-0.23-0.29C14.05,0.4,14.14,0.31,14.26,0.3L14.26,0.3z"/>
				<path id="Path_281-2" class="st2" d="M15.98,0.33c0.12-0.01,0.24,0.07,0.25,0.2c0.01,0.12-0.07,0.24-0.2,0.25
					c-0.12,0.01-0.24-0.07-0.25-0.2c0-0.01,0-0.02,0-0.03C15.78,0.44,15.87,0.34,15.98,0.33z"/>
			</g>
			<g id="Group_33-2" transform="translate(7.528 1.354)">
				<path id="Path_282-2" class="st2" d="M0.44,0C0.72-0.03,0.97,0.17,1,0.44c0.03,0.27-0.17,0.52-0.44,0.55
					C0.28,1.02,0.03,0.83,0,0.55C0,0.54,0,0.52,0,0.5C-0.02,0.24,0.18,0.02,0.44,0C0.44,0,0.44,0,0.44,0z"/>
				<path id="Path_283-2" class="st2" d="M2.17,0.03C2.41,0.05,2.6,0.26,2.58,0.5C2.6,0.74,2.41,0.95,2.17,0.96
					C1.93,0.95,1.74,0.74,1.75,0.5C1.74,0.26,1.92,0.05,2.17,0.03z"/>
				<path id="Path_284-2" class="st2" d="M3.89,0.07c0.24-0.03,0.46,0.14,0.48,0.38C4.4,0.69,4.23,0.91,3.99,0.94
					C3.75,0.97,3.53,0.79,3.51,0.56c0-0.02,0-0.03,0-0.05C3.49,0.28,3.66,0.08,3.89,0.07z"/>
				<path id="Path_285-2" class="st2" d="M5.61,0.11c0.21,0.01,0.37,0.19,0.36,0.4c0.01,0.21-0.15,0.39-0.36,0.4
					c-0.21-0.01-0.37-0.19-0.36-0.4C5.24,0.3,5.4,0.12,5.61,0.11z"/>
				<path id="Path_286-2" class="st2" d="M7.34,0.14c0.21-0.02,0.39,0.12,0.41,0.33c0.02,0.21-0.12,0.39-0.33,0.41
					S7.03,0.76,7.01,0.56c0-0.01,0-0.03,0-0.04C7,0.32,7.15,0.15,7.34,0.14z"/>
				<path id="Path_287-2" class="st2" d="M9.06,0.18c0.19-0.02,0.36,0.11,0.38,0.3c0.02,0.19-0.11,0.36-0.3,0.38
					c-0.19,0.02-0.36-0.11-0.38-0.3c0-0.01,0-0.03,0-0.04C8.75,0.34,8.89,0.19,9.06,0.18z"/>
				<path id="Path_288-2" class="st2" d="M10.79,0.21c0.16,0.01,0.28,0.15,0.28,0.31c0.01,0.16-0.11,0.3-0.28,0.31
					c-0.16-0.01-0.28-0.15-0.28-0.31C10.5,0.36,10.62,0.22,10.79,0.21C10.79,0.21,10.79,0.21,10.79,0.21z"/>
				<path id="Path_289-2" class="st2" d="M12.51,0.25c0.14,0.01,0.26,0.13,0.25,0.28c0.01,0.14-0.1,0.27-0.25,0.28
					c-0.15-0.02-0.26-0.16-0.24-0.31C12.28,0.36,12.38,0.26,12.51,0.25L12.51,0.25z"/>
				<path id="Path_290-2" class="st2" d="M14.24,0.28c0.13,0.01,0.23,0.12,0.22,0.25c-0.01,0.12-0.12,0.21-0.24,0.19
					C14.09,0.71,14,0.6,14.02,0.48C14.03,0.37,14.12,0.28,14.24,0.28z"/>
				<path id="Path_291-2" class="st2" d="M15.96,0.32c0.11,0,0.2,0.1,0.19,0.21c0,0,0,0,0,0.01c0.01,0.11-0.08,0.21-0.19,0.21
					c0,0,0,0,0,0c-0.11,0-0.2-0.1-0.19-0.21c0,0,0,0,0-0.01C15.76,0.42,15.84,0.33,15.96,0.32C15.96,0.32,15.96,0.32,15.96,0.32z"/>
			</g>
			<g id="Group_34-2" transform="translate(8.782 0)">
				<path id="Path_292-2" class="st2" d="M0.42,0c0.25,0.02,0.44,0.23,0.42,0.47c0.01,0.25-0.17,0.46-0.42,0.47c0,0,0,0,0,0
					C0.18,0.93-0.01,0.72,0,0.47C-0.01,0.22,0.18,0.01,0.42,0z"/>
				<path id="Path_293-2" class="st2" d="M2.14,0.03c0.23,0.01,0.41,0.21,0.4,0.44C2.56,0.71,2.38,0.9,2.15,0.92c0,0,0,0,0,0
					c-0.23-0.01-0.41-0.21-0.4-0.44c0,0,0,0,0,0C1.74,0.24,1.91,0.05,2.14,0.03C2.14,0.03,2.14,0.03,2.14,0.03z"/>
				<path id="Path_294-2" class="st2" d="M3.87,0.07c0.22,0.01,0.38,0.2,0.37,0.41c0.01,0.22-0.15,0.4-0.37,0.41c0,0,0,0,0,0
					C3.66,0.88,3.49,0.69,3.5,0.48C3.49,0.26,3.65,0.08,3.87,0.07C3.87,0.07,3.87,0.07,3.87,0.07z"/>
				<path id="Path_295-2" class="st2" d="M5.59,0.1c0.2,0.01,0.35,0.18,0.34,0.38c0.01,0.2-0.14,0.37-0.34,0.38c0,0,0,0,0,0
					c-0.2-0.01-0.35-0.18-0.34-0.38C5.24,0.28,5.39,0.11,5.59,0.1C5.59,0.1,5.59,0.1,5.59,0.1z"/>
				<path id="Path_296-2" class="st2" d="M7.32,0.13C7.5,0.14,7.64,0.3,7.63,0.49C7.64,0.67,7.5,0.83,7.32,0.84c0,0,0,0,0,0
					C7.13,0.83,6.99,0.67,7,0.48C6.99,0.3,7.13,0.14,7.32,0.13C7.32,0.13,7.32,0.13,7.32,0.13z"/>
				<path id="Path_297-2" class="st2" d="M9.04,0.17c0.17,0.01,0.3,0.15,0.29,0.32C9.34,0.66,9.21,0.8,9.04,0.81
					C8.87,0.8,8.75,0.66,8.75,0.49C8.74,0.32,8.87,0.18,9.04,0.17z"/>
				<path id="Path_298-2" class="st2" d="M10.76,0.2c0.15,0.01,0.27,0.14,0.26,0.29c0.01,0.15-0.11,0.28-0.26,0.29
					c-0.15-0.01-0.27-0.14-0.26-0.29C10.49,0.34,10.61,0.21,10.76,0.2z"/>
				<path id="Path_299-2" class="st2" d="M12.49,0.24c0.14,0.01,0.24,0.13,0.24,0.26c0.01,0.14-0.1,0.25-0.23,0.26c0,0,0,0,0,0
					c-0.14-0.01-0.24-0.13-0.23-0.26C12.25,0.36,12.35,0.24,12.49,0.24C12.49,0.24,12.49,0.24,12.49,0.24z"/>
				<path id="Path_300-2" class="st2" d="M14.21,0.27c0.12,0.01,0.22,0.11,0.21,0.23c0.01,0.12-0.09,0.23-0.21,0.23c0,0,0,0,0,0
					C14.09,0.73,14,0.62,14,0.5C14,0.38,14.09,0.28,14.21,0.27C14.21,0.27,14.21,0.27,14.21,0.27z"/>
				<path id="Path_301-2" class="st2" d="M15.94,0.3c0.1,0.01,0.19,0.1,0.18,0.2c0,0.1-0.08,0.19-0.18,0.2
					c-0.1-0.01-0.18-0.1-0.18-0.2C15.75,0.4,15.83,0.31,15.94,0.3z"/>
			</g>
		</g>
	</g>
</g>
</svg>
